<svg width="32" height="32" fill="none" xmlns="http://www.w3.org/2000/svg"><rect width="32" height="32" rx="10" fill="#FF8484"/><g clip-path="url(#clip0_9066_2)" fill="#fff"><path d="M18.207 13.797a.375.375 0 00-.375.374v7.082a.375.375 0 00.75 0v-7.082a.375.375 0 00-.375-.374zm-4.421 0a.375.375 0 00-.375.374v7.082a.375.375 0 00.75 0v-7.082a.375.375 0 00-.375-.374z"/><path d="M10.563 12.763v9.232c0 .546.2 1.058.55 1.426.348.369.832.578 1.338.579h7.09c.507 0 .991-.21 1.339-.579.35-.368.55-.88.55-1.426v-9.232a1.431 1.431 0 00-.368-2.815h-1.918V9.48A1.472 1.472 0 0017.66 8h-3.327a1.472 1.472 0 00-1.484 1.48v.468H10.93a1.432 1.432 0 00-.367 2.815zm8.978 10.487h-7.09c-.64 0-1.139-.55-1.139-1.255v-9.199h9.368v9.2c0 .704-.498 1.255-1.139 1.255zM13.598 9.48a.721.721 0 01.735-.73h3.327a.722.722 0 01.734.73v.468h-4.796V9.48zm-2.668 1.218h10.132a.674.674 0 110 1.349H10.93a.674.674 0 110-1.35z"/><path d="M15.996 13.797a.375.375 0 00-.375.374v7.082a.375.375 0 00.75 0v-7.082a.375.375 0 00-.375-.374z"/></g><defs><clipPath id="clip0_9066_2"><path fill="#fff" transform="translate(8 8)" d="M0 0h16v16H0z"/></clipPath></defs></svg>