<?xml version="1.0" standalone="no"?>
<!DOCTYPE svg PUBLIC "-//W3C//DTD SVG 20010904//EN"
 "http://www.w3.org/TR/2001/REC-SVG-20010904/DTD/svg10.dtd">
<svg version="1.0" xmlns="http://www.w3.org/2000/svg"
 width="744.000000pt" height="744.000000pt" viewBox="0 0 744.000000 744.000000"
 preserveAspectRatio="xMidYMid meet">
<metadata>
Created by potrace 1.14, written by Peter Selinger 2001-2017
</metadata>
<g transform="translate(0.000000,744.000000) scale(0.100000,-0.100000)"
fill="#000000" stroke="none">
<path d="M3030 7308 c-46 -5 -94 -19 -125 -35 -62 -32 -165 -110 -166 -126 0
-7 -48 -54 -105 -106 -89 -79 -184 -192 -184 -217 0 -4 20 -39 44 -78 24 -39
47 -80 50 -91 4 -11 27 -36 51 -55 29 -23 50 -51 61 -80 57 -151 89 -200 158
-244 30 -19 60 -45 67 -58 39 -74 143 -220 162 -227 28 -11 178 -141 199 -173
17 -26 75 -48 127 -48 17 0 72 20 123 45 71 36 101 45 132 43 42 -3 60 -24 29
-35 -35 -13 -147 -98 -221 -167 -87 -81 -118 -142 -202 -398 -56 -168 -77
-209 -155 -293 -75 -81 -138 -186 -175 -292 -17 -49 -35 -91 -39 -96 -4 -4
-27 8 -52 26 -60 46 -265 179 -314 205 -42 21 -133 111 -201 197 -21 28 -74
86 -116 131 -55 57 -78 89 -78 106 0 34 36 139 65 193 14 24 25 55 25 69 0 21
5 26 24 26 37 0 86 20 96 40 6 10 10 32 10 49 0 47 9 60 59 86 25 13 64 38 85
57 35 31 38 36 27 56 -12 22 -16 23 -99 17 -48 -4 -100 -11 -117 -16 -16 -4
-59 -8 -94 -8 -48 1 -70 -4 -90 -19 -21 -16 -36 -18 -78 -12 -28 3 -57 11 -65
17 -7 6 -39 18 -71 28 l-58 18 -32 -31 c-22 -22 -43 -32 -63 -32 -16 0 -46 -8
-67 -19 -20 -10 -53 -22 -72 -25 -20 -4 -50 -20 -68 -35 -17 -15 -53 -33 -79
-40 -46 -13 -47 -14 -58 -68 -8 -38 -9 -71 -2 -111 8 -42 7 -60 -1 -68 -20
-19 -115 -54 -160 -60 -100 -13 -137 -40 -137 -101 0 -25 -6 -36 -27 -47 -16
-8 -40 -30 -55 -49 -15 -19 -60 -59 -101 -90 -41 -31 -94 -80 -118 -109 -71
-87 -110 -127 -181 -184 -37 -30 -122 -108 -190 -173 -101 -98 -131 -134 -166
-199 -23 -44 -42 -87 -42 -96 0 -8 -13 -57 -29 -108 -79 -252 -73 -212 -80
-568 l-7 -325 24 -65 c13 -36 29 -78 35 -93 19 -53 135 -134 279 -196 175 -75
175 -75 182 -114 9 -50 36 -68 108 -76 55 -7 108 -30 434 -195 205 -103 379
-195 388 -204 9 -9 27 -33 39 -52 12 -19 39 -43 60 -53 31 -16 42 -17 72 -7
19 6 39 19 44 28 9 16 10 16 16 -1 4 -9 13 -17 20 -17 7 0 15 -6 18 -14 6 -16
62 -46 86 -46 18 -1 61 -34 61 -48 0 -5 18 -17 41 -27 50 -23 111 -91 128
-143 12 -34 11 -43 -3 -64 -26 -39 -31 -109 -11 -151 16 -35 16 -38 -4 -80
-12 -24 -21 -48 -21 -54 0 -6 -6 -16 -13 -22 -19 -15 -20 -166 -1 -182 19 -16
20 -228 2 -233 -46 -14 -46 -14 -39 -48 4 -20 15 -37 29 -43 12 -5 22 -17 22
-27 0 -9 9 -32 20 -51 19 -32 20 -42 10 -124 -13 -115 -25 -147 -71 -195 -21
-22 -50 -63 -63 -91 -23 -48 -25 -66 -29 -231 l-4 -179 -35 -18 c-45 -23 -78
-84 -78 -144 l0 -45 159 0 c88 0 162 4 165 9 3 4 63 11 133 14 88 3 148 12
192 26 36 11 68 18 73 15 5 -3 7 -18 6 -32 -3 -25 0 -27 34 -30 l38 -3 -4 51
c-4 51 -23 82 -79 130 -15 14 -19 38 -23 175 -3 95 -11 179 -20 207 -8 26 -14
52 -14 59 0 7 -21 39 -47 72 -62 79 -72 114 -80 270 -6 125 -4 136 17 182 18
40 24 73 28 159 3 75 9 114 18 124 10 10 13 35 11 95 -3 65 -9 92 -31 131 -30
57 -32 70 -10 121 22 52 11 104 -33 155 -19 22 -38 39 -40 36 -3 -3 9 -29 26
-59 26 -46 30 -59 21 -81 -18 -49 -97 -58 -136 -15 -16 18 -17 26 -5 96 15 87
28 115 52 108 10 -4 18 1 22 12 2 10 8 26 12 36 6 15 4 16 -18 8 -24 -9 -37
-6 -37 10 0 4 10 9 23 11 18 2 23 10 25 43 2 22 9 47 16 55 33 38 38 60 25
111 -15 58 -3 122 33 171 l21 30 -31 61 c-17 34 -36 90 -43 125 -11 59 -21 74
-34 52 -10 -17 -25 -11 -25 10 0 13 7 20 19 20 12 0 21 9 25 26 8 31 1 43 -16
26 -18 -18 -28 -15 -28 9 0 16 4 19 20 14 15 -5 20 -2 20 14 0 11 4 22 9 25 4
3 11 50 14 105 7 137 16 153 94 167 110 20 155 45 178 101 7 17 26 39 42 49
137 85 34 196 -212 228 -86 12 -90 13 -87 36 1 13 0 31 -3 39 -5 11 -9 10 -21
-7 -17 -25 -46 -29 -64 -7 -16 19 -6 32 32 41 18 3 38 13 44 22 6 8 11 57 12
108 2 96 11 132 60 233 41 86 18 99 -175 100 -89 1 -104 -1 -112 -17 -12 -23
-4 -58 21 -94 10 -14 18 -32 18 -40 0 -7 6 -31 14 -53 8 -24 13 -75 11 -125
-1 -47 3 -91 8 -97 6 -9 5 -24 -3 -43 -9 -21 -9 -38 -2 -59 13 -36 4 -41 -79
-41 -76 0 -182 -24 -234 -53 -73 -41 -73 -107 0 -157 28 -20 45 -38 45 -51 0
-11 13 -33 29 -49 26 -27 70 -43 176 -66 38 -9 40 -11 52 -64 21 -93 25 -302
8 -389 -15 -72 -40 -136 -67 -174 -11 -14 -8 -27 21 -80 28 -52 33 -69 27 -97
-19 -92 -18 -109 3 -144 24 -38 28 -73 13 -126 l-9 -35 -12 29 c-24 60 -138
189 -159 181 -18 -7 -72 32 -72 52 0 20 -65 72 -112 89 -12 4 -18 17 -18 40 0
78 -87 151 -151 127 -39 -15 -77 1 -505 213 -233 115 -337 172 -348 190 -21
31 -74 64 -104 64 -13 0 -34 -11 -47 -24 -23 -23 -25 -23 -77 -10 -296 75
-354 121 -403 320 -14 59 -16 107 -12 314 6 267 12 327 46 440 13 41 34 116
48 165 41 149 74 196 245 353 153 140 273 257 363 353 60 64 189 169 208 169
7 0 22 7 33 15 26 20 41 19 71 -5 35 -28 79 -16 128 34 35 35 135 97 157 96 3
0 15 -16 26 -35 14 -22 41 -44 80 -64 32 -16 83 -54 113 -83 54 -53 208 -244
264 -328 50 -75 125 -181 183 -258 30 -41 60 -85 67 -98 21 -42 173 -219 241
-283 59 -56 342 -251 363 -251 5 0 14 -7 21 -15 17 -21 72 -19 159 5 156 44
207 88 421 366 25 32 91 109 148 172 132 146 189 223 202 275 6 23 29 92 51
153 31 86 49 119 77 147 21 21 45 37 53 37 18 0 50 -33 69 -70 34 -64 160
-227 212 -272 l58 -50 0 -63 c0 -52 6 -75 36 -136 20 -41 48 -86 62 -101 l24
-27 -16 -103 c-9 -57 -21 -132 -27 -168 -5 -36 -12 -78 -15 -95 -3 -16 -9 -70
-14 -118 -7 -72 -15 -99 -44 -153 -24 -43 -39 -87 -45 -130 -5 -35 -18 -79
-29 -97 -11 -17 -22 -45 -26 -60 -6 -27 -85 -156 -112 -184 -10 -10 -131 -193
-171 -258 -7 -11 -27 -49 -44 -85 -162 -340 -174 -374 -164 -460 5 -39 2 -77
-8 -116 -8 -33 -18 -86 -21 -119 -13 -125 -29 -215 -68 -385 -50 -224 -58
-247 -106 -352 -46 -98 -67 -207 -51 -261 14 -43 14 -292 1 -342 -6 -22 -18
-60 -27 -85 -30 -81 -47 -212 -50 -390 -1 -96 -6 -205 -10 -242 l-7 -68 75 0
74 0 -2 28 c0 15 4 37 11 50 10 20 13 21 24 7 33 -40 42 11 9 53 -22 28 -10
44 17 22 12 -11 13 -10 8 5 -4 10 -1 21 7 27 11 8 10 9 -3 4 -14 -4 -18 0 -18
19 0 18 4 23 15 19 21 -9 20 35 -2 51 -16 12 -16 14 0 29 9 10 17 18 17 19 1
1 3 31 6 66 5 50 3 62 -8 59 -7 -3 -12 -14 -11 -24 1 -10 -7 -39 -19 -64 -19
-43 -21 -44 -29 -22 -6 15 -4 46 5 84 7 33 12 67 9 77 -2 9 5 25 16 35 12 11
21 15 21 9 0 -6 11 -8 25 -5 35 6 31 20 -10 38 -32 13 -52 40 -21 28 8 -3 17
-1 21 5 3 6 1 11 -4 11 -6 0 -11 9 -11 20 0 11 4 20 10 20 5 0 7 -7 4 -15 -4
-8 -1 -15 5 -15 19 0 12 28 -11 44 -19 13 -20 19 -10 41 6 14 16 25 21 25 5 0
7 9 4 19 -3 10 0 29 7 41 8 16 8 25 0 35 -12 15 3 31 19 20 13 -7 31 27 31 57
0 13 7 33 15 44 17 23 19 54 3 54 -6 0 -22 -10 -35 -22 -32 -30 -40 -16 -9 17
29 31 34 55 11 55 -8 0 -15 -6 -15 -14 0 -12 -20 -26 -36 -26 -2 0 -4 20 -4
45 0 49 17 95 35 95 7 0 19 10 28 22 14 21 17 22 31 7 15 -14 15 -18 -8 -52
-20 -29 -22 -38 -12 -47 10 -7 17 -6 26 5 7 8 19 15 26 15 8 0 14 6 14 13 0 7
12 24 26 36 22 19 25 28 20 54 -17 81 -2 166 38 220 17 23 18 30 7 36 -16 10
-10 20 46 77 18 18 37 44 43 58 14 38 30 32 27 -10 -1 -27 -12 -47 -40 -75
-22 -21 -37 -44 -35 -51 10 -28 38 -17 84 33 27 29 61 66 77 82 30 34 34 47
12 47 -20 0 -19 12 3 36 42 45 102 132 102 148 0 9 7 19 15 22 8 4 15 11 15
16 0 5 36 55 80 110 85 106 102 142 52 111 -15 -10 -44 -35 -65 -57 -21 -21
-40 -36 -43 -34 -2 3 27 38 66 78 38 40 70 77 70 83 0 5 -11 6 -25 3 -20 -5
-25 -3 -25 14 0 29 -24 24 -55 -11 -34 -41 -42 -32 -10 12 13 19 32 45 42 58
9 13 16 38 15 56 -2 19 4 37 13 45 9 7 13 21 10 31 -7 22 3 24 30 5 42 -28
181 -99 239 -121 58 -22 170 -80 227 -118 28 -18 30 -57 4 -57 -18 0 -41 -30
-55 -74 -8 -24 -35 -61 -70 -96 -56 -56 -141 -125 -161 -132 -6 -2 -11 -12
-13 -23 -1 -10 -11 -24 -20 -29 -9 -6 -47 -39 -83 -73 -36 -35 -69 -63 -74
-63 -5 0 -9 -4 -9 -9 0 -14 -45 -61 -59 -61 -6 0 -11 -9 -11 -19 0 -11 -3 -26
-6 -35 -10 -26 24 -31 50 -7 12 11 27 21 33 21 7 0 20 11 30 23 10 13 27 29
39 35 11 6 40 29 64 51 25 23 49 41 53 41 5 0 26 17 47 38 22 20 62 55 90 77
28 22 82 65 119 95 38 30 94 74 125 98 31 24 56 50 56 58 0 18 8 18 26 0 7 -8
19 -16 26 -19 18 -7 -191 -208 -219 -212 -12 -1 -34 -17 -49 -35 -15 -18 -32
-37 -38 -44 -6 -6 -19 -28 -29 -47 -13 -25 -24 -35 -36 -32 -23 6 -75 -43 -67
-63 4 -10 -1 -18 -13 -21 -12 -3 -17 -11 -14 -22 7 -26 -79 -111 -112 -111
-14 0 -25 -4 -25 -10 0 -5 7 -10 15 -10 10 0 7 -8 -10 -24 -16 -16 -35 -24
-52 -23 -24 2 -28 -2 -31 -25 -2 -16 -8 -28 -13 -28 -5 0 -9 -6 -9 -13 0 -7
-13 -27 -29 -45 -36 -39 -47 -68 -27 -75 19 -8 26 1 26 35 0 29 6 33 35 22 13
-5 14 -9 4 -15 -7 -4 -17 -22 -23 -41 -8 -22 -17 -33 -31 -33 -11 -1 -19 -6
-18 -13 2 -7 -4 -12 -12 -12 -11 0 -14 -7 -9 -24 4 -17 -2 -32 -25 -56 -28
-31 -46 -62 -85 -150 -8 -19 -24 -51 -34 -70 -11 -19 -27 -60 -37 -90 -9 -30
-20 -64 -25 -75 -4 -11 -17 -43 -29 -71 -22 -56 -19 -121 6 -131 19 -7 32 13
26 38 -3 10 4 34 16 52 12 19 21 50 21 70 0 20 4 38 9 41 5 3 12 23 16 43 6
35 19 52 38 53 4 0 3 -9 -3 -19 -5 -11 -10 -42 -10 -70 0 -39 4 -51 15 -51 20
0 19 -10 -2 -25 -14 -10 -15 -17 -6 -36 7 -17 7 -29 0 -40 -8 -13 -6 -24 6
-42 14 -22 15 -27 1 -38 -8 -6 -14 -19 -13 -28 2 -18 -6 -43 -26 -83 -15 -31
-9 -68 11 -68 8 0 17 7 21 15 5 13 8 13 20 -4 10 -15 11 -26 3 -40 -5 -11 -10
-29 -10 -40 0 -12 -4 -21 -10 -21 -15 0 -12 -30 3 -30 6 -1 -3 -7 -21 -15 -18
-8 -31 -19 -28 -24 4 -5 2 -12 -4 -16 -16 -10 -12 46 5 79 18 34 8 51 -23 42
-22 -7 -33 -41 -37 -108 l-2 -38 409 0 c343 0 409 2 405 14 -4 10 4 13 34 12
21 0 41 -6 44 -13 3 -9 27 -13 74 -13 l69 0 -18 48 c-10 26 -30 74 -45 107
-14 33 -32 74 -40 90 -7 17 -21 66 -30 110 -42 197 -94 310 -189 415 -97 108
-162 183 -170 198 -5 9 -33 39 -63 66 -29 27 -53 55 -53 64 0 36 90 127 313
315 50 43 151 133 222 201 72 67 151 141 177 165 47 42 159 201 195 276 11 22
30 67 42 100 45 122 151 244 321 365 100 72 166 130 220 195 161 193 263 414
306 665 23 134 24 330 2 380 -9 19 -26 58 -38 85 -12 28 -29 58 -37 67 -9 10
-20 37 -25 60 -5 24 -14 63 -20 88 -5 25 -10 63 -9 85 0 22 0 78 1 125 0 47 4
96 9 110 42 119 65 290 59 435 -8 177 -29 398 -44 456 -8 30 -14 62 -14 70 0
20 126 41 155 26 11 -6 51 -16 90 -24 313 -61 392 -66 539 -32 50 12 116 35
146 50 88 46 259 183 306 244 l25 33 -20 39 c-42 82 -101 124 -243 175 -62 22
-129 44 -148 50 -19 6 -39 14 -45 18 -29 24 -170 40 -283 34 l-117 -7 -115 56
c-63 30 -145 75 -181 100 -106 71 -494 362 -609 457 -159 130 -262 182 -400
199 -71 9 -103 3 -225 -40 -37 -13 -114 -26 -200 -35 -175 -16 -233 -29 -315
-66 -62 -28 -70 -30 -158 -24 l-94 6 -63 51 c-87 70 -204 205 -305 351 -29 43
-62 80 -72 84 -10 3 -18 11 -18 18 0 15 -89 82 -159 119 -155 83 -326 110
-531 85z m633 -484 c3 -3 -6 -16 -20 -28 -18 -16 -26 -34 -28 -62 -1 -21 -3
-46 -4 -55 0 -9 -10 -19 -21 -22 -12 -3 -20 -14 -20 -25 0 -12 -4 -24 -10 -27
-13 -8 -13 -45 -1 -45 5 0 21 4 35 10 20 7 26 16 26 40 0 16 5 30 12 30 6 0
19 7 29 16 16 15 17 13 12 -24 -3 -25 0 -50 11 -70 21 -42 20 -50 -6 -45 -16
3 -27 -3 -36 -16 -7 -12 -8 -21 -3 -21 5 0 11 -10 13 -22 2 -15 9 -22 19 -20
9 1 29 -5 45 -13 42 -22 48 -20 91 29 37 42 63 100 63 142 0 16 2 16 16 -4 19
-27 50 -31 39 -4 -19 46 -18 52 11 52 28 0 64 -25 64 -44 0 -7 12 -13 27 -14
33 -3 40 -9 25 -24 -27 -27 -5 -71 24 -47 8 6 17 9 20 6 3 -3 -4 -10 -15 -17
-27 -14 -16 -34 14 -26 19 5 22 3 18 -14 -3 -11 -9 -23 -14 -26 -5 -3 -9 -9
-9 -15 0 -12 37 -12 44 0 3 5 20 11 38 14 73 13 98 20 98 26 0 4 33 13 74 20
41 6 80 19 86 27 7 7 18 14 24 14 6 0 28 11 48 25 20 14 58 32 84 41 45 15 48
15 61 -2 18 -24 10 -66 -21 -107 -13 -18 -27 -47 -31 -64 -3 -18 -10 -33 -15
-33 -4 0 -11 -11 -14 -25 -4 -14 -11 -25 -16 -25 -6 0 -10 -7 -10 -15 0 -8 5
-15 10 -15 6 0 10 -9 10 -20 0 -11 7 -23 15 -26 21 -9 19 -37 -6 -68 -24 -31
-24 -31 17 -40 26 -6 34 -3 48 20 13 19 21 23 29 15 17 -17 23 -14 45 21 16
25 18 37 10 57 -5 14 -11 58 -13 96 -1 39 -1 60 2 48 2 -13 11 -23 19 -23 13
0 20 40 16 92 -2 29 88 118 149 148 38 18 59 24 62 16 3 -8 8 -7 19 2 9 7 55
16 102 19 78 5 86 4 80 -10 -4 -12 -1 -17 10 -17 9 0 16 5 16 11 0 7 10 9 28
4 15 -4 34 -8 42 -9 8 -1 25 -8 37 -14 12 -7 31 -12 42 -12 25 0 84 -34 75
-43 -4 -4 4 -11 17 -16 13 -5 44 -28 69 -50 25 -23 48 -41 53 -41 4 0 7 -7 7
-15 0 -8 9 -15 19 -15 10 0 21 -7 25 -15 3 -8 12 -15 21 -15 8 0 15 -4 15 -10
0 -5 11 -12 25 -16 28 -7 65 -52 58 -71 -3 -7 0 -13 5 -13 6 0 12 6 15 13 3 8
11 6 28 -9 13 -12 33 -24 45 -28 11 -3 36 -22 55 -41 18 -19 38 -35 43 -35 5
0 19 -11 31 -24 13 -14 25 -23 27 -20 10 9 68 -19 73 -36 7 -23 83 -86 127
-106 18 -8 53 -30 78 -49 25 -18 56 -34 70 -34 25 -1 55 -34 45 -51 -11 -18
-83 -22 -107 -6 -12 9 -30 16 -39 16 -9 0 -27 9 -41 19 -29 23 -78 38 -78 24
0 -12 29 -38 50 -46 8 -3 3 -6 -12 -6 -16 -1 -28 4 -28 9 0 6 -6 10 -12 10 -7
0 -35 24 -63 53 -74 76 -114 107 -139 107 -13 0 -44 17 -71 38 -83 64 -142 51
-335 -73 -47 -30 -90 -54 -96 -55 -25 0 -47 -39 -40 -71 l6 -32 -19 24 c-10
13 -22 49 -26 79 -4 30 -11 60 -15 65 -5 6 -10 21 -12 35 -2 17 -8 24 -20 22
-10 -2 -18 2 -18 8 0 5 -16 10 -36 10 -38 0 -37 2 -17 -47 3 -7 -2 -13 -11
-13 -22 0 -36 -31 -35 -77 1 -21 -3 -58 -9 -83 -7 -32 -7 -47 1 -52 8 -5 6
-17 -6 -43 -23 -48 -22 -57 8 -49 16 4 25 2 25 -6 0 -6 4 -9 9 -6 5 3 23 1 40
-5 26 -9 43 -8 87 6 29 9 56 21 60 26 3 5 17 9 32 9 21 -1 42 -18 94 -79 62
-73 187 -171 218 -171 17 0 102 -50 127 -76 12 -12 28 -24 35 -27 20 -8 -31
-45 -53 -40 -14 4 -19 0 -19 -16 0 -17 -6 -21 -29 -21 -40 0 -49 -27 -13 -41
19 -8 32 -7 45 1 25 15 31 7 15 -22 -7 -12 -14 -25 -15 -26 -4 -9 -82 -25
-123 -26 -39 -1 -45 -4 -48 -23 -4 -27 4 -28 95 -11 57 10 67 10 95 -7 29 -17
32 -17 43 -1 11 15 13 15 19 1 10 -27 -5 -44 -76 -92 -39 -26 -73 -53 -75 -60
-3 -8 -13 -11 -25 -7 -17 5 -18 3 -9 -15 12 -22 31 -29 31 -11 0 5 17 17 38
27 20 9 40 19 45 21 4 2 7 -11 7 -28 0 -36 -55 -130 -76 -130 -18 0 -65 -49
-62 -63 3 -14 -33 -77 -44 -77 -4 0 -8 -4 -8 -10 0 -22 28 -7 72 38 65 66 179
205 173 211 -3 2 2 15 11 29 13 20 14 26 3 33 -7 4 -10 11 -6 16 4 4 17 1 28
-6 18 -10 24 -10 41 5 10 10 17 26 15 36 -6 21 20 48 27 27 13 -42 16 -70 6
-64 -5 3 -10 -2 -10 -13 0 -11 7 -23 16 -26 8 -3 12 -11 9 -17 -5 -8 -10 -8
-18 0 -20 20 -30 12 -23 -19 3 -20 -1 -41 -12 -63 -22 -39 -46 -143 -37 -157
12 -19 33 8 40 50 4 21 13 46 20 57 8 10 15 40 15 67 0 47 14 59 15 13 0 -15
6 -22 19 -22 17 0 19 -8 21 -60 1 -72 -2 -85 -21 -78 -9 3 -14 -1 -14 -11 0
-9 7 -19 16 -23 15 -5 15 -7 -1 -15 -12 -7 -15 -17 -10 -38 3 -16 2 -31 -4
-35 -14 -8 -14 -48 -1 -61 6 -6 6 -23 -1 -48 -6 -21 -8 -54 -5 -72 4 -19 2
-35 -4 -39 -6 -4 -8 -21 -4 -43 6 -34 5 -35 -8 -18 -16 21 -43 13 -34 -10 3
-8 -3 -23 -14 -34 -11 -11 -20 -24 -20 -29 0 -5 -7 -15 -16 -22 -23 -19 -64
-85 -64 -103 0 -22 19 -30 43 -17 19 10 39 48 61 114 7 23 36 22 36 -3 0 -10
-11 -31 -25 -44 -21 -21 -24 -30 -15 -45 14 -27 13 -41 -5 -41 -7 0 -18 -7
-23 -16 -7 -13 -13 -14 -50 -1 -30 10 -44 11 -52 3 -8 -8 -13 -8 -18 0 -8 12
-132 12 -436 -1 l-188 -8 25 25 c30 30 52 97 37 112 -6 6 -10 18 -10 28 0 9
-8 22 -17 27 -16 9 -16 12 -3 21 10 7 11 12 4 18 -6 4 -13 15 -17 25 -7 18
-27 24 -27 7 0 -5 -9 -18 -21 -29 -24 -22 -20 -47 13 -92 25 -33 12 -65 -30
-75 -15 -4 -37 -18 -49 -33 -21 -24 -24 -25 -33 -8 -14 22 -30 22 -30 -2 0
-16 -13 -20 -92 -29 -51 -6 -97 -7 -102 -2 -4 4 -22 4 -39 -1 -36 -10 -150
-12 -184 -3 -13 4 -23 12 -23 19 0 22 51 33 168 39 115 5 146 15 140 45 -3 10
7 20 26 27 17 6 38 25 48 42 l18 32 -30 0 c-16 0 -39 -4 -52 -9 -113 -43 -143
-37 -220 40 -32 32 -58 66 -58 77 0 10 -9 27 -19 36 -11 10 -21 28 -23 40 -2
13 -10 21 -23 21 -28 0 -32 -59 -10 -148 18 -75 10 -101 -29 -95 -16 2 -23 15
-33 57 -6 29 -9 60 -6 67 3 8 0 21 -7 29 -10 12 -8 21 9 48 26 43 27 61 2 54
-23 -6 -76 24 -90 52 -8 13 -8 28 -1 46 6 15 8 30 6 34 -3 4 0 24 6 45 17 54
-2 69 -41 32 l-29 -28 -14 21 c-7 11 -23 21 -35 21 -25 0 -58 28 -74 63 -13
29 -32 62 -46 78 -6 8 -14 46 -18 86 -6 60 -10 73 -27 79 -13 4 -25 -1 -34
-13 -14 -17 -15 -16 -11 10 2 15 1 30 -3 32 -4 3 -39 -6 -76 -20 -38 -14 -82
-25 -99 -25 -32 0 -121 41 -195 90 -85 56 -118 70 -165 70 -33 0 -45 -4 -45
-15 0 -8 3 -15 8 -16 53 -5 90 -25 128 -68 35 -39 37 -55 14 -98 -11 -21 -20
-45 -20 -54 0 -33 -134 -251 -214 -349 -79 -96 -126 -165 -126 -184 0 -23 37
-20 45 4 3 11 31 41 61 68 31 26 72 72 92 102 31 47 105 145 133 174 12 13 51
-34 44 -52 -3 -7 -5 -17 -5 -21 0 -4 -20 -38 -45 -76 -51 -79 -116 -151 -145
-160 -10 -3 -22 -15 -25 -26 -4 -10 -29 -42 -56 -71 -27 -28 -49 -58 -49 -65
0 -8 -40 -56 -89 -106 -49 -51 -108 -116 -131 -144 -40 -51 -60 -65 -60 -43 0
6 -9 10 -20 10 -15 0 -26 -13 -40 -46 -17 -39 -22 -44 -35 -34 -11 9 -22 10
-38 4 -31 -14 -65 -6 -77 17 -6 10 -20 19 -31 19 -11 0 -17 5 -14 10 3 6 30
10 60 10 29 0 60 3 69 6 23 9 19 32 -6 40 -13 3 -31 13 -40 21 -12 11 -21 12
-37 4 -29 -16 -48 -14 -81 11 -34 25 -47 20 -30 -11 8 -17 8 -21 -3 -21 -8 0
-20 7 -27 15 -12 14 -15 14 -30 0 -14 -13 -22 -13 -56 -2 -29 10 -51 30 -87
77 -50 66 -56 91 -11 47 29 -29 44 -34 44 -15 0 11 -42 58 -107 120 -26 25
-30 34 -21 45 9 11 0 24 -43 66 -82 78 -190 172 -203 175 -11 3 -21 20 -72
121 -29 58 -183 280 -210 302 -13 10 -17 10 -25 -2 -8 -12 -10 -12 -19 1 -5 8
-10 20 -10 26 0 6 -7 17 -15 24 -22 19 -18 28 18 43 17 8 41 24 52 37 19 21
19 22 1 35 -14 11 -22 11 -37 2 -15 -9 -24 -9 -41 2 -13 8 -40 23 -61 33 -29
15 -37 24 -35 41 2 18 -3 23 -25 25 -16 2 -35 -2 -43 -9 -11 -9 -17 -9 -30 2
-13 10 -17 10 -24 -1 -7 -12 -13 -12 -34 0 -14 7 -26 16 -26 20 0 10 132 60
157 60 12 0 25 -4 28 -10 3 -5 14 -10 24 -10 25 0 87 -67 83 -90 -4 -23 15
-29 102 -32 52 -3 61 -6 75 -29 15 -25 67 -89 118 -146 12 -14 25 -34 28 -44
4 -11 11 -19 16 -19 5 0 31 -21 58 -47 69 -69 149 -137 164 -141 6 -2 30 -12
52 -22 22 -11 69 -32 105 -48 63 -28 109 -61 212 -149 27 -24 54 -43 61 -43 7
0 28 -25 47 -55 19 -30 41 -54 48 -55 8 0 11 -7 7 -19 -3 -10 1 -24 10 -31 17
-14 21 -35 4 -24 -12 7 -29 -12 -29 -33 0 -7 7 -13 15 -13 11 0 14 -11 12 -47
-1 -35 2 -48 13 -50 20 -4 50 61 54 119 4 60 12 71 44 63 41 -10 46 15 10 52
l-32 33 41 0 c51 0 103 18 103 36 0 11 -16 14 -63 14 -68 0 -75 4 -109 66 -16
29 -15 74 3 74 4 0 15 23 23 51 9 28 29 69 46 92 16 22 30 49 30 58 0 9 7 22
15 29 8 7 15 19 15 26 0 8 15 31 34 51 18 21 45 57 60 81 14 23 30 42 34 42 4
0 23 14 42 31 19 17 45 35 58 40 12 5 22 15 22 23 0 7 7 16 15 20 22 8 18 36
-5 36 -23 0 -25 9 -8 45 9 21 9 28 -1 34 -9 6 -10 11 -2 15 18 11 13 30 -11
41 -27 12 -36 35 -14 35 9 0 30 23 47 50 17 28 34 50 38 50 4 0 23 15 42 34
90 84 208 151 224 126 7 -11 -8 -48 -43 -106 -16 -27 -33 -70 -36 -96 -7 -44
-6 -48 14 -48 28 0 77 55 84 96 7 36 85 155 125 190 32 28 56 23 93 -19 23
-26 26 -33 15 -46 -17 -22 -47 -88 -47 -106 0 -8 7 -15 15 -15 9 0 15 -9 15
-25 0 -17 6 -25 16 -25 9 0 22 -7 29 -17 7 -9 17 -13 23 -9 19 11 14 37 -8 43
-24 6 -24 7 -4 38 10 15 14 36 11 52 -3 15 -1 36 4 46 11 20 -19 98 -50 132
-16 16 -18 28 -12 68 6 36 5 47 -6 47 -21 0 -15 27 7 33 25 6 37 34 21 50 -8
8 -19 7 -41 -6 -28 -17 -29 -17 -40 3 -8 14 -17 19 -30 15 -15 -5 -17 -2 -13
15 3 11 12 20 20 20 8 0 11 5 7 11 -4 8 -9 8 -17 0 -16 -16 -37 -13 -37 4 0 8
-5 15 -11 15 -6 0 -8 9 -4 20 5 14 2 20 -9 20 -21 0 -21 1 14 70 33 65 38 100
15 100 -8 0 -15 -6 -15 -12 0 -27 -20 18 -20 45 0 15 -7 42 -17 60 -9 17 -19
42 -22 55 -8 30 -79 59 -88 36 -3 -8 -11 -14 -19 -14 -8 0 -14 -7 -14 -15 0
-8 7 -15 15 -15 8 0 15 5 15 12 0 8 5 8 15 -2 24 -24 35 -211 14 -236 -6 -8
-9 -21 -5 -29 3 -8 -7 -38 -21 -67 -18 -36 -28 -47 -31 -35 -3 17 -23 23 -35
11 -3 -3 -2 -17 3 -30 9 -22 4 -27 -48 -61 -100 -64 -193 -91 -206 -58 -3 8
-12 15 -21 15 -8 0 -15 3 -15 7 0 13 34 43 49 43 9 0 25 14 35 31 18 30 18 31
-5 55 -12 13 -28 24 -35 24 -6 0 -14 7 -18 15 -3 9 -18 15 -36 15 -24 0 -30 4
-30 20 0 59 -56 106 -148 125 -29 6 -34 4 -39 -14 -3 -12 -9 -21 -14 -21 -5 0
-9 -7 -9 -15 0 -10 10 -15 33 -15 54 0 65 -16 21 -30 -20 -7 -49 -24 -62 -39
-16 -17 -26 -22 -29 -13 -3 6 -15 31 -29 55 -28 49 -45 85 -70 146 -10 24 -43
68 -72 97 l-54 53 48 42 c27 23 50 48 52 55 6 23 -33 16 -58 -11 -13 -14 -25
-23 -28 -20 -7 6 78 85 92 85 6 0 19 9 29 20 17 20 16 20 -10 14 -16 -3 -41
-13 -57 -20 -38 -18 -42 -13 -11 16 25 24 33 50 15 50 -12 0 -82 -48 -92 -63
-12 -18 -10 5 3 42 13 37 64 64 90 48 13 -8 24 -3 51 24 20 20 54 40 81 48 41
12 51 11 81 -3 21 -10 64 -16 112 -17 92 -2 110 -11 147 -70 16 -24 40 -52 53
-62 23 -17 27 -17 49 -3 13 9 31 16 39 16 31 0 67 44 71 87 6 56 29 99 63 117
31 17 36 18 45 10z m167 -84 c15 -16 35 -30 44 -30 12 0 16 -10 16 -37 l-1
-38 -17 23 c-9 13 -34 41 -54 63 -21 21 -38 41 -38 44 0 14 25 2 50 -25z m-60
-122 c0 -19 -2 -20 -10 -8 -13 19 -13 30 0 30 6 0 10 -10 10 -22z m369 -74 c2
-2 2 -7 -2 -10 -10 -10 -58 6 -52 17 6 8 42 4 54 -7z m-918 -476 c28 -34 24
-51 -8 -45 -18 3 -34 0 -45 -10 -17 -15 -18 -14 -18 19 0 31 17 51 48 57 2 1
12 -9 23 -21z m2543 0 c9 -12 16 -26 16 -30 0 -10 -141 -96 -181 -109 -19 -7
-38 -15 -44 -19 -24 -18 -72 -21 -85 -5 -11 13 -9 20 15 45 16 17 37 30 46 30
10 0 38 14 62 30 25 17 48 30 52 30 4 0 20 11 37 25 37 31 62 32 82 3z m-499
-68 c-3 -5 -11 -10 -16 -10 -6 0 -7 5 -4 10 3 6 11 10 16 10 6 0 7 -4 4 -10z
m639 -10 c22 -13 44 -44 71 -97 21 -43 50 -92 65 -109 14 -16 31 -43 37 -60
23 -63 33 -101 33 -122 0 -11 5 -24 10 -27 6 -3 10 -20 10 -37 l0 -31 -56 6
c-39 4 -64 13 -80 28 -28 27 -30 38 -7 54 15 11 15 15 3 30 -14 17 -16 17
-174 2 -10 -1 -21 4 -23 11 -3 6 2 12 10 12 8 0 25 9 38 20 l24 20 -24 7 c-23
6 -24 7 -5 14 31 12 44 10 38 -6 -4 -8 -1 -15 5 -15 6 0 11 7 11 15 0 12 9 15
36 13 48 -4 55 16 15 40 -42 25 -121 18 -169 -14 -44 -30 -52 -30 -76 2 -15
22 -16 28 -5 35 19 12 46 11 54 -1 10 -16 25 -12 25 6 0 13 7 15 30 11 16 -4
32 -2 36 4 4 7 23 8 50 4 59 -9 60 16 1 44 -52 25 -53 25 -147 2 -41 -11 -76
-18 -78 -16 -6 5 112 90 133 96 14 3 20 14 20 33 0 20 7 31 20 37 30 11 35 11
69 -11z m-2654 -35 c-27 -14 -36 -13 -25 4 3 6 16 11 28 11 21 -1 21 -1 -3
-15z m3165 -66 c-7 -10 -35 -1 -35 11 0 5 9 6 20 3 11 -3 17 -9 15 -14z m-819
-55 c-32 -28 -43 -26 -26 5 6 12 20 21 33 21 21 -1 21 -2 -7 -26z m634 16 c0
-5 -9 -10 -19 -10 -11 0 -23 5 -26 10 -4 6 5 10 19 10 14 0 26 -4 26 -10z
m500 -30 c0 -14 56 -12 80 2 15 10 22 10 32 0 6 -6 22 -12 35 -12 13 0 23 -4
23 -9 0 -8 -90 -23 -155 -26 -40 -2 -153 -24 -187 -37 -16 -6 -28 -17 -28 -25
0 -13 -2 -13 -17 -2 -15 13 -15 14 0 17 24 5 21 29 -3 35 -11 3 -20 12 -20 21
0 19 26 22 33 4 3 -10 9 -10 29 1 15 7 31 11 36 7 6 -3 14 -2 17 4 4 6 16 8
26 5 11 -4 25 -2 32 3 10 9 35 17 60 21 4 0 7 -3 7 -9z m-4849 -61 c35 -71 42
-100 29 -125 -20 -36 -41 -26 -72 32 l-28 51 20 23 c11 13 20 27 20 32 0 14
22 4 31 -13z m331 -6 c22 -20 24 -61 3 -69 -26 -11 -65 23 -65 56 0 24 4 30
22 30 12 0 30 -7 40 -17z m4668 -14 l85 -1 -60 -13 c-33 -7 -62 -11 -65 -10
-7 4 -130 -27 -244 -63 -68 -21 -90 -32 -97 -49 -5 -13 -17 -23 -28 -23 -11 0
-44 -9 -73 -19 -55 -20 -185 -51 -214 -51 -14 0 -14 2 -3 16 9 11 10 20 2 33
-6 9 -14 41 -17 71 l-7 55 38 -41 c21 -23 48 -47 61 -54 27 -13 52 -7 52 13 0
18 88 15 118 -4 23 -14 38 -8 27 11 -4 6 -13 9 -21 6 -15 -6 -19 12 -6 30 4 6
24 14 46 17 21 3 47 13 57 22 20 19 68 33 152 45 32 4 61 11 65 15 4 3 16 4
27 1 11 -3 58 -6 105 -7z m-4860 -19 c-32 -25 -43 -25 -28 0 7 11 22 20 33 20
18 0 18 -2 -5 -20z m5010 10 c-36 -11 -50 -11 -50 0 0 6 17 10 38 9 33 -1 34
-2 12 -9z m-5258 -58 c32 -38 62 -108 55 -126 -4 -9 -18 -16 -32 -16 -20 0
-30 11 -55 60 -33 66 -36 80 -18 98 17 17 23 15 50 -16z m4033 18 c-3 -5 -11
-10 -16 -10 -6 0 -7 5 -4 10 3 6 11 10 16 10 6 0 7 -4 4 -10z m557 -10 c18 0
20 -2 8 -10 -8 -5 -27 -10 -42 -10 -22 0 -28 5 -28 20 0 17 3 19 19 10 11 -5
30 -10 43 -10z m784 9 c4 -7 22 -9 44 -6 62 8 76 -24 39 -87 -23 -40 -34 -44
-43 -20 -4 11 -13 14 -29 10 -12 -4 -27 -8 -32 -9 -6 -1 -21 -10 -35 -20 -13
-9 -37 -17 -53 -17 -15 0 -44 -8 -65 -18 -20 -10 -75 -24 -122 -31 -47 -7 -98
-16 -115 -21 -43 -12 -135 -19 -129 -8 3 4 17 8 31 8 15 0 37 10 50 22 20 18
26 20 33 9 7 -12 11 -12 23 1 23 22 106 43 126 32 11 -7 24 -6 41 3 14 7 44
13 68 13 40 0 79 14 93 34 4 5 12 6 18 2 20 -13 61 24 61 56 0 30 0 30 -42 24
-23 -4 -46 -12 -50 -19 -5 -8 -54 -12 -167 -13 -132 0 -167 -4 -201 -19 -29
-13 -46 -15 -61 -8 -19 8 -14 11 37 22 32 7 93 22 134 33 47 13 115 22 183 24
60 1 112 5 115 8 9 10 40 7 48 -5z m-5521 -35 c9 -4 28 -30 43 -58 42 -81 43
-85 22 -96 -25 -14 -47 -4 -59 28 -5 15 -18 39 -27 53 -11 17 -15 35 -10 53 7
29 7 29 31 20z m443 -6 c-6 -16 -77 -58 -100 -58 -14 0 -16 5 -9 23 6 15 22
26 52 34 58 15 61 15 57 1z m-568 -38 c0 -5 8 -10 18 -10 10 0 26 -15 37 -36
16 -30 17 -37 4 -45 -30 -19 -64 -1 -64 33 0 18 -6 23 -27 23 -35 1 -44 11
-28 30 14 17 60 21 60 5z m1960 -19 c0 -5 -7 -12 -16 -15 -14 -5 -15 -4 -4 9
14 17 20 19 20 6z m3704 -54 c-6 -16 -90 -60 -105 -55 -8 3 40 32 108 67 1 0
0 -5 -3 -12z m-5696 -78 c-13 -8 -28 7 -28 30 0 11 5 10 20 -4 15 -14 17 -20
8 -26z m548 -20 c-9 -18 -16 -39 -16 -47 0 -10 -7 -12 -24 -8 -28 7 -43 -18
-25 -41 15 -17 15 -17 -46 -30 -42 -10 -53 -9 -67 4 -10 9 -18 22 -18 30 0 8
-12 13 -30 13 -41 0 -38 16 8 36 119 52 227 92 230 84 2 -6 -4 -24 -12 -41z
m3944 31 c0 -5 -2 -10 -4 -10 -3 0 -8 5 -11 10 -3 6 -1 10 4 10 6 0 11 -4 11
-10z m1014 -21 c-20 -33 -212 -78 -202 -47 4 12 19 16 141 34 26 3 50 11 53
15 3 5 7 9 10 9 3 0 2 -5 -2 -11z m-5353 -14 c1 -5 -51 -33 -115 -61 -64 -29
-158 -73 -209 -98 -51 -25 -96 -46 -100 -46 -13 0 -47 40 -47 55 0 9 14 16 38
20 20 4 50 9 66 12 15 3 78 30 140 61 61 30 127 59 146 63 45 9 80 7 81 -6z
m310 -537 c8 -15 8 -18 0 -14 -6 4 -16 16 -22 28 -8 15 -8 18 0 14 6 -4 16
-16 22 -28z m47 -83 c-3 -3 -9 2 -12 12 -6 14 -5 15 5 6 7 -7 10 -15 7 -18z
m467 -575 c3 -5 -1 -10 -9 -10 -9 0 -16 5 -16 10 0 6 4 10 9 10 6 0 13 -4 16
-10z m2325 -14 c0 -2 -9 -6 -20 -9 -11 -3 -20 -1 -20 4 0 5 9 9 20 9 11 0 20
-2 20 -4z m385 -86 c4 -6 -10 -10 -34 -10 -23 0 -41 5 -41 10 0 6 15 10 34 10
19 0 38 -4 41 -10z m-655 -20 c0 -5 -9 -10 -21 -10 -11 0 -17 5 -14 10 3 6 13
10 21 10 8 0 14 -4 14 -10z m-2152 -62 c-3 -7 -11 -13 -18 -13 -7 0 -15 6 -17
13 -3 7 4 12 17 12 13 0 20 -5 18 -12z m-24 -267 c7 -11 -17 -21 -47 -21 -22
1 -22 1 -3 15 22 17 42 19 50 6z m-4 -100 c0 -13 -27 -21 -45 -15 -8 4 -12 10
-9 15 7 12 54 12 54 0z m-116 -190 c8 -12 -56 -91 -74 -91 -8 0 -52 -12 -98
-26 -45 -15 -84 -25 -85 -23 -1 2 -12 18 -25 36 -12 18 -22 37 -22 42 0 33
286 92 304 62z m157 -3 c-1 -5 -1 -18 -1 -30 l-1 -23 -19 24 c-11 12 -17 27
-14 33 7 10 35 7 35 -4z m-41 -50 c30 -49 26 -58 -25 -58 -42 0 -45 2 -45 26
0 33 17 64 35 64 9 0 24 -15 35 -32z m-150 -87 c0 -7 -55 -26 -137 -49 -22 -6
-14 27 8 39 24 12 110 28 122 22 4 -2 7 -8 7 -12z m2331 -148 c-24 -46 -27
-31 -5 23 9 22 19 34 21 27 2 -6 -5 -29 -16 -50z m-3726 -281 c22 -21 78 -56
125 -77 150 -67 598 -296 640 -326 70 -51 45 -66 -43 -25 -29 13 -209 101
-400 195 -192 94 -360 174 -373 177 -25 7 -26 7 -26 54 0 41 0 40 19 40 10 0
35 -17 58 -38z m3655 0 c0 -10 -7 -27 -15 -38 -13 -17 -13 -15 -3 19 12 41 18
47 18 19z m-2097 -335 c10 -28 21 -60 24 -69 6 -21 -55 -40 -99 -31 -28 6 -29
7 -22 52 3 25 10 50 15 56 5 5 9 17 9 27 0 13 8 18 28 18 24 0 29 -7 45 -53z
m-591 -122 c8 -19 8 -31 0 -50 -23 -51 -65 -42 -65 14 0 57 44 82 65 36z m605
9 c-3 -3 -12 -4 -19 -1 -8 3 -5 6 6 6 11 1 17 -2 13 -5z m-493 -135 c24 -11
44 -39 28 -39 -19 0 -62 26 -62 38 0 15 3 15 34 1z m476 -63 c0 -47 -62 -64
-68 -18 -2 16 3 25 20 31 37 15 48 12 48 -13z m-83 -18 c-3 -8 -6 -5 -6 6 -1
11 2 17 5 13 3 -3 4 -12 1 -19z m1681 -57 c18 -8 32 -20 32 -28 0 -12 -56
-132 -95 -203 -67 -122 -91 -160 -101 -160 -7 0 -14 -6 -17 -12 -2 -7 -8 -9
-13 -5 -5 5 -1 13 9 18 9 6 17 15 17 22 0 7 9 23 20 37 25 32 25 40 1 40 -34
0 -42 64 -16 126 8 19 14 56 13 82 0 26 2 54 5 62 14 40 15 50 7 55 -7 4 -6
13 0 26 10 18 13 17 59 -14 26 -18 62 -39 79 -46z m85 -451 c-5 -20 -21 -36
-27 -29 -2 2 0 14 5 27 10 27 29 29 22 2z m-52 -85 c1 -17 -18 -17 -25 0 -4
11 -1 15 10 13 8 -2 15 -7 15 -13z m-1616 -25 c-3 -5 -27 -9 -53 -9 -46 2 -46
2 -12 9 53 11 72 11 65 0z m-8 -56 c-3 -3 -12 -4 -19 -1 -8 3 -5 6 6 6 11 1
17 -2 13 -5z m2228 -54 c-3 -5 -11 -10 -16 -10 -6 0 -7 5 -4 10 3 6 11 10 16
10 6 0 7 -4 4 -10z m-2192 -7 c16 -15 -18 -33 -65 -33 -63 0 -61 22 3 31 24 3
47 7 50 7 3 1 9 -1 12 -5z m-23 -113 c0 -5 -7 -13 -16 -18 -14 -8 -16 -27 -15
-121 1 -68 -2 -111 -8 -111 -9 0 -21 247 -12 256 9 8 51 4 51 -6z m1306 -73
c-4 -24 -13 -53 -21 -63 -12 -17 -13 -14 -13 31 0 32 5 56 15 68 22 24 27 15
19 -36z m-1342 -425 c3 -5 12 -40 20 -79 16 -79 47 -146 83 -183 32 -31 49
-66 58 -113 6 -32 3 -40 -26 -69 l-32 -33 2 -170 c1 -93 4 -172 7 -174 2 -3
20 3 39 12 37 17 44 12 23 -16 -32 -41 -249 -67 -318 -37 l-35 15 70 5 70 5 0
169 0 170 -47 24 c-66 34 -77 65 -49 141 11 32 21 68 21 79 0 12 9 45 19 74
11 29 21 75 24 101 5 48 29 87 53 87 7 0 15 -4 18 -8z m1839 -99 c-12 -31 -38
-53 -51 -44 -10 6 -5 15 18 35 37 31 42 32 33 9z m-73 -94 c-6 -11 -15 -17
-21 -14 -5 4 -5 14 1 26 6 11 15 17 21 14 5 -4 5 -14 -1 -26z m432 -206 c-5
-10 -14 -28 -21 -41 -12 -23 -8 -42 10 -42 5 0 9 9 9 20 0 10 9 24 21 30 11 6
24 21 29 33 13 33 13 -5 0 -39 -15 -38 1 -52 34 -30 15 9 26 23 26 31 0 20 16
19 24 -1 4 -9 13 -14 21 -10 9 3 15 0 15 -8 0 -23 -22 -76 -31 -76 -13 0 -11
34 3 48 9 9 9 15 -1 25 -10 10 -15 8 -27 -7 -18 -25 -17 -46 1 -70 8 -11 15
-29 15 -40 0 -32 16 -50 35 -42 14 5 15 9 5 21 -11 13 -10 18 6 30 10 8 24 13
29 11 16 -5 8 -116 -9 -135 -12 -13 -13 -20 -4 -29 14 -14 19 -72 7 -94 -13
-24 -38 -13 -95 41 -89 85 -121 130 -128 177 -3 24 -13 58 -21 75 -9 17 -15
47 -13 67 2 29 9 40 31 50 15 7 27 18 27 24 0 6 3 9 6 6 3 -3 1 -14 -4 -25z
m283 -434 c0 -17 -6 -25 -22 -27 -23 -3 -30 8 -15 22 4 4 8 12 8 17 3 19 4 21
17 17 6 -3 12 -16 12 -29z m-75 -43 c-13 -13 -35 7 -25 24 5 8 11 8 21 -1 10
-8 12 -15 4 -23z"/>
<path d="M3255 6640 c-3 -5 -1 -10 4 -10 6 0 11 5 11 10 0 6 -2 10 -4 10 -3 0
-8 -4 -11 -10z"/>
<path d="M3605 6560 c-8 -14 3 -30 21 -30 16 0 16 2 8 24 -7 18 -20 21 -29 6z"/>
<path d="M3550 6530 c0 -5 5 -10 10 -10 6 0 10 5 10 10 0 6 -4 10 -10 10 -5 0
-10 -4 -10 -10z"/>
<path d="M3975 6510 c-4 -6 -3 -16 3 -22 6 -6 12 -6 17 2 4 6 3 16 -3 22 -6 6
-12 6 -17 -2z"/>
<path d="M3015 6485 c-27 -14 -66 -28 -85 -31 -46 -9 -60 -21 -60 -53 0 -34
51 -75 81 -66 15 5 22 -1 34 -29 15 -35 46 -49 60 -26 10 15 17 12 59 -22 30
-25 49 -32 90 -34 28 -2 66 2 84 8 35 13 44 38 13 38 -10 0 -31 6 -46 14 -42
22 -60 56 -29 56 9 0 26 9 38 19 11 11 38 34 59 51 48 41 47 54 -3 45 -35 -6
-40 -4 -40 13 0 16 -9 21 -47 25 -150 18 -156 18 -208 -8z m162 -51 c-3 -3
-12 -4 -19 -1 -8 3 -5 6 6 6 11 1 17 -2 13 -5z m3 -64 c-20 -13 -33 -13 -25 0
3 6 14 10 23 10 15 0 15 -2 2 -10z"/>
<path d="M3510 6455 c0 -18 5 -25 20 -25 15 0 20 7 20 25 0 18 -5 25 -20 25
-15 0 -20 -7 -20 -25z"/>
<path d="M3960 6439 c0 -11 5 -17 10 -14 6 3 10 13 10 21 0 8 -4 14 -10 14 -5
0 -10 -9 -10 -21z"/>
<path d="M4010 6445 c-17 -20 -4 -35 31 -35 34 0 35 3 12 30 -21 24 -27 25
-43 5z"/>
<path d="M3487 6406 c-6 -15 1 -26 15 -26 4 0 8 9 8 20 0 23 -15 27 -23 6z"/>
<path d="M4065 6380 c-3 -5 -1 -10 4 -10 6 0 11 5 11 10 0 6 -2 10 -4 10 -3 0
-8 -4 -11 -10z"/>
<path d="M3450 6325 c0 -9 5 -15 11 -13 6 2 11 8 11 13 0 5 -5 11 -11 13 -6 2
-11 -4 -11 -13z"/>
<path d="M3440 6280 c0 -5 7 -10 15 -10 8 0 15 5 15 10 0 6 -7 10 -15 10 -8 0
-15 -4 -15 -10z"/>
<path d="M4350 6182 c-47 -48 -96 -103 -110 -122 -14 -18 -49 -56 -78 -83 -52
-50 -70 -87 -77 -162 -2 -16 -12 -53 -23 -81 -12 -29 -19 -54 -16 -57 5 -5 11
-28 13 -49 1 -5 7 -8 15 -8 10 0 15 -11 14 -39 0 -44 28 -95 49 -87 8 3 16 -1
19 -9 7 -16 30 -20 38 -7 8 13 -9 33 -30 36 -11 2 -20 12 -22 25 -2 12 -12 27
-23 34 -19 12 -19 12 1 27 17 13 21 34 30 130 14 167 19 181 75 204 34 14 95
69 95 85 0 5 7 11 15 15 8 3 15 10 15 16 0 9 30 41 145 160 14 14 25 31 25 37
0 9 -43 23 -74 23 -6 0 -49 -39 -96 -88z"/>
<path d="M4695 6130 c-3 -6 1 -13 10 -16 19 -8 30 0 20 15 -8 14 -22 14 -30 1z"/>
<path d="M3635 6080 c-3 -5 1 -10 9 -10 9 0 16 5 16 10 0 6 -4 10 -9 10 -6 0
-13 -4 -16 -10z"/>
<path d="M5100 5930 c0 -5 4 -10 9 -10 6 0 13 5 16 10 3 6 -1 10 -9 10 -9 0
-16 -4 -16 -10z"/>
<path d="M5047 5883 c-4 -20 -4 -39 -2 -42 10 -9 26 16 28 44 3 43 -19 41 -26
-2z"/>
<path d="M4277 5443 c-4 -3 -7 -15 -7 -25 0 -10 -6 -18 -14 -18 -8 0 -17 -11
-20 -25 -6 -25 -26 -35 -26 -13 0 6 -9 3 -20 -7 -26 -24 -25 -34 5 -45 20 -8
25 -16 25 -44 0 -18 6 -39 14 -45 7 -6 16 -30 19 -53 3 -22 10 -44 15 -47 5
-3 17 -22 27 -41 10 -19 41 -59 69 -88 28 -30 55 -60 59 -68 4 -7 28 -25 52
-40 53 -30 56 -46 16 -70 -49 -29 -54 -80 -15 -155 14 -28 23 -57 20 -64 -6
-17 11 -31 49 -41 25 -6 28 -5 19 7 -6 8 -14 40 -17 73 -3 32 -13 66 -21 75
-20 22 -21 41 -3 41 8 0 22 9 32 20 10 11 24 20 31 20 16 0 84 63 84 78 0 19
-73 72 -108 78 -18 4 -46 19 -62 35 -15 16 -32 29 -37 29 -8 0 -33 39 -64 101
-10 20 -25 39 -32 42 -8 3 -17 20 -20 39 -3 18 -13 60 -22 93 -9 33 -19 80
-21 105 -5 46 -15 66 -27 53z"/>
<path d="M5640 5420 c0 -5 7 -10 15 -10 8 0 15 5 15 10 0 6 -7 10 -15 10 -8 0
-15 -4 -15 -10z"/>
<path d="M3995 5380 c3 -5 10 -10 16 -10 5 0 9 5 9 10 0 6 -7 10 -16 10 -8 0
-12 -4 -9 -10z"/>
<path d="M4130 5340 c0 -24 15 -27 24 -4 9 22 8 24 -9 24 -8 0 -15 -9 -15 -20z"/>
<path d="M4717 5318 c-22 -12 -22 -61 -1 -82 35 -36 94 -6 94 47 0 21 -6 28
-27 33 -16 3 -33 7 -39 9 -5 2 -18 -1 -27 -7z"/>
<path d="M5520 5230 c-12 -8 -12 -10 2 -15 19 -7 38 1 38 16 0 12 -21 11 -40
-1z"/>
<path d="M4647 5214 c-8 -8 1 -24 14 -24 5 0 9 7 9 15 0 15 -12 20 -23 9z"/>
<path d="M5740 5160 c-8 -5 -11 -12 -8 -16 10 -9 38 3 38 16 0 12 -10 13 -30
0z"/>
<path d="M3985 5139 c-10 -15 3 -25 16 -12 7 7 7 13 1 17 -6 3 -14 1 -17 -5z"/>
<path d="M5659 5121 c-65 -25 -179 -35 -193 -16 -10 12 -14 12 -31 -1 -17 -12
-18 -16 -5 -24 8 -5 18 -6 23 -3 5 3 8 0 5 -8 -3 -8 -13 -16 -24 -18 -25 -4
-44 -20 -44 -37 0 -10 6 -11 26 -4 14 6 38 10 54 10 16 0 32 4 35 10 4 6 13 5
24 -2 27 -17 152 18 158 43 3 11 10 20 17 21 6 0 16 2 21 3 6 2 14 3 19 4 10
1 -23 41 -33 41 -3 -1 -27 -9 -52 -19z"/>
<path d="M2034 5019 c-3 -6 13 -31 37 -55 46 -47 44 -62 -3 -17 -22 21 -31 24
-40 15 -9 -9 -5 -19 20 -45 18 -18 32 -40 32 -49 0 -8 6 -21 14 -27 11 -10 16
-8 24 6 9 16 12 15 23 -10 7 -15 16 -27 21 -27 4 0 8 -7 8 -15 0 -18 46 -21
52 -4 4 12 190 -182 240 -251 21 -27 37 -40 54 -40 13 0 24 -4 24 -9 0 -5 7
-11 14 -14 10 -4 13 -1 9 9 -10 27 19 14 60 -26 28 -29 43 -38 51 -30 7 7 -3
24 -36 57 -44 43 -47 45 -78 35 -30 -11 -32 -10 -45 21 -7 18 -32 48 -54 67
-23 19 -41 38 -41 42 0 4 -64 71 -141 150 -78 79 -157 162 -177 186 -34 42
-55 52 -68 31z"/>
<path d="M5882 4968 c-13 -13 -16 -38 -4 -37 4 0 15 3 24 7 14 6 14 10 4 24
-10 13 -15 15 -24 6z"/>
<path d="M5715 4940 c3 -5 8 -10 11 -10 2 0 4 5 4 10 0 6 -5 10 -11 10 -5 0
-7 -4 -4 -10z"/>
<path d="M5798 4803 c-14 -21 -47 -62 -73 -91 -30 -33 -45 -58 -41 -68 3 -8
-1 -26 -10 -39 -22 -33 1 -43 30 -13 13 12 35 31 50 41 39 27 109 126 102 144
-4 9 1 24 10 35 10 10 14 21 10 25 -4 4 -11 1 -16 -7 -7 -11 -12 -11 -23 -2
-12 10 -19 5 -39 -25z"/>
<path d="M5620 4810 c0 -5 5 -10 10 -10 6 0 10 5 10 10 0 6 -4 10 -10 10 -5 0
-10 -4 -10 -10z"/>
<path d="M3070 4750 c-18 -18 -27 -40 -16 -40 12 0 76 43 76 51 0 17 -40 9
-60 -11z"/>
<path d="M5213 4425 c-3 -9 -3 -18 -1 -21 9 -9 38 8 38 22 0 19 -29 18 -37 -1z"/>
<path d="M5107 4393 c-11 -10 -8 -43 3 -43 6 0 10 4 10 9 0 5 3 16 6 25 6 16
-7 22 -19 9z"/>
<path d="M5890 4366 c0 -9 5 -16 10 -16 6 0 10 4 10 9 0 6 -4 13 -10 16 -5 3
-10 -1 -10 -9z"/>
<path d="M2804 4355 c-4 -8 -3 -23 1 -32 6 -16 8 -16 26 6 10 12 16 27 13 32
-8 14 -34 10 -40 -6z"/>
<path d="M2890 4350 c0 -5 7 -10 15 -10 8 0 15 5 15 10 0 6 -7 10 -15 10 -8 0
-15 -4 -15 -10z"/>
<path d="M3195 4340 c-7 -12 2 -30 16 -30 5 0 9 9 9 20 0 21 -15 27 -25 10z"/>
<path d="M2863 4315 c-3 -9 -3 -18 0 -21 9 -9 27 6 27 22 0 19 -19 18 -27 -1z"/>
<path d="M1895 5380 c-7 -11 2 -30 14 -30 5 0 11 9 14 20 5 21 -16 29 -28 10z"/>
<path d="M3797 2073 c-4 -3 -7 -11 -7 -17 0 -6 5 -5 12 2 6 6 9 14 7 17 -3 3
-9 2 -12 -2z"/>
<path d="M3780 1975 c0 -8 5 -15 10 -15 6 0 10 7 10 15 0 8 -4 15 -10 15 -5 0
-10 -7 -10 -15z"/>
<path d="M4393 2066 c-28 -28 -43 -53 -43 -70 0 -23 4 -21 50 27 44 45 65 87
43 87 -5 0 -27 -20 -50 -44z"/>
<path d="M4283 1938 c-33 -47 -48 -94 -34 -102 10 -7 41 20 41 34 0 5 14 25
31 45 26 29 29 38 19 50 -18 22 -24 19 -57 -27z"/>
<path d="M4193 1835 c-3 -9 -3 -19 1 -22 8 -9 37 18 30 28 -8 14 -24 11 -31
-6z"/>
<path d="M4115 1743 c-47 -60 -55 -83 -31 -83 14 0 96 113 96 131 0 22 -23 5
-65 -48z"/>
<path d="M4400 1409 c0 -5 5 -7 10 -4 6 3 10 8 10 11 0 2 -4 4 -10 4 -5 0 -10
-5 -10 -11z"/>
<path d="M4146 1402 c-4 -7 -2 -12 3 -12 6 0 10 -5 9 -11 -2 -6 3 -14 10 -16
16 -6 15 9 -1 32 -10 12 -16 14 -21 7z"/>
<path d="M4164 1115 c-9 -22 1 -29 15 -11 8 10 9 16 1 21 -5 3 -13 -1 -16 -10z"/>
<path d="M4132 1059 c2 -6 8 -10 13 -10 5 0 11 4 13 10 2 6 -4 11 -13 11 -9 0
-15 -5 -13 -11z"/>
<path d="M4066 953 c-11 -11 -6 -23 9 -23 8 0 15 4 15 9 0 13 -16 22 -24 14z"/>
<path d="M3906 705 c-9 -13 -12 -26 -7 -29 5 -3 16 5 25 19 9 13 12 26 7 29
-5 3 -16 -5 -25 -19z"/>
<path d="M3605 520 c3 -5 8 -10 11 -10 2 0 4 5 4 10 0 6 -5 10 -11 10 -5 0 -7
-4 -4 -10z"/>
<path d="M3560 502 c0 -5 7 -16 16 -23 14 -12 16 -11 13 5 -4 20 -29 35 -29
18z"/>
<path d="M4020 490 c0 -22 1 -23 24 -14 13 5 14 9 5 20 -16 20 -29 17 -29 -6z"/>
<path d="M3930 376 c0 -9 5 -16 10 -16 6 0 10 4 10 9 0 6 -4 13 -10 16 -5 3
-10 -1 -10 -9z"/>
<path d="M4007 344 c-3 -3 -4 -11 -1 -17 2 -7 -5 -18 -17 -25 -19 -12 -20 -11
-14 7 5 15 2 21 -9 21 -9 0 -16 -4 -16 -9 0 -5 -3 -16 -6 -25 -4 -11 -1 -16
10 -16 9 0 16 -5 16 -10 0 -17 47 22 59 48 6 13 11 25 11 27 0 7 -26 6 -33 -1z"/>
<path d="M4025 179 c-10 -15 3 -25 16 -12 7 7 7 13 1 17 -6 3 -14 1 -17 -5z"/>
<path d="M3875 171 c-6 -11 9 -23 19 -14 9 9 7 23 -3 23 -6 0 -12 -4 -16 -9z"/>
<path d="M3780 40 c0 -5 5 -10 10 -10 6 0 10 5 10 10 0 6 -4 10 -10 10 -5 0
-10 -4 -10 -10z"/>
<path d="M3565 31 c-3 -5 -1 -12 5 -16 5 -3 10 1 10 9 0 18 -6 21 -15 7z"/>
</g>
</svg>
