<svg width="16" height="16" fill="none" xmlns="http://www.w3.org/2000/svg"><path d="M2.858 0h10.909c.568 0 1.051.212 1.449.636.398.425.597.94.597 1.546v11.636c0 .606-.2 1.121-.597 1.546-.398.424-.88.636-1.449.636H2.858a1.912 1.912 0 01-1.449-.636c-.398-.425-.597-.94-.597-1.546V2.182c0-.606.2-1.121.597-1.546A1.914 1.914 0 012.858 0zm8.864 2.182v2.182h2.045V2.182h-2.045zM10.23 5.955a2.458 2.458 0 00-1.918-.864c-.767 0-1.42.288-1.96.864C5.841 6.5 5.585 7.182 5.585 8c0 .818.256 1.515.767 2.09.54.546 1.193.82 1.96.82.768 0 1.407-.274 1.918-.82.54-.575.81-1.272.81-2.09 0-.818-.27-1.5-.81-2.045zm-8.054.59v7.273c0 .485.227.728.682.728h10.909c.455 0 .682-.243.682-.728V6.545h-2.301c.17.485.255.97.255 1.455 0 1.212-.397 2.242-1.193 3.09-.795.85-1.761 1.274-2.898 1.274-1.136 0-2.102-.425-2.897-1.273C4.619 10.242 4.222 9.212 4.222 8c0-.485.085-.97.255-1.455h-2.3z" fill="#C8CDD8"/></svg>