<svg version="1.0" xmlns="http://www.w3.org/2000/svg" width="992" height="992" viewBox="0 0 744 744"><path d="M303 13.2c-4.6.5-9.4 1.9-12.5 3.5-6.2 3.2-16.5 11-16.6 12.6 0 .7-4.8 5.4-10.5 10.6-8.9 7.9-18.4 19.2-18.4 21.7 0 .4 2 3.9 4.4 7.8 2.4 3.9 4.7 8 5 9.1.4 1.1 2.7 3.6 5.1 5.5 2.9 2.3 5 5.1 6.1 8 5.7 15.1 8.9 20 15.8 24.4 3 1.9 6 4.5 6.7 5.8 3.9 7.4 14.3 22 16.2 22.7 2.8 1.1 17.8 14.1 19.9 17.3 1.7 2.6 7.5 4.8 12.7 4.8 1.7 0 7.2-2 12.3-4.5 7.1-3.6 10.1-4.5 13.2-4.3 4.2.3 6 2.4 2.9 3.5-3.5 1.3-14.7 9.8-22.1 16.7-8.7 8.1-11.8 14.2-20.2 39.8-5.6 16.8-7.7 20.9-15.5 29.3-7.5 8.1-13.8 18.6-17.5 29.2-1.7 4.9-3.5 9.1-3.9 9.6-.4.4-2.7-.8-5.2-2.6-6-4.6-26.5-17.9-31.4-20.5-4.2-2.1-13.3-11.1-20.1-19.7-2.1-2.8-7.4-8.6-11.6-13.1-5.5-5.7-7.8-8.9-7.8-10.6 0-3.4 3.6-13.9 6.5-19.3 1.4-2.4 2.5-5.5 2.5-6.9 0-2.1.5-2.6 2.4-2.6 3.7 0 8.6-2 9.6-4 .6-1 1-3.2 1-4.9 0-4.7.9-6 5.9-8.6 2.5-1.3 6.4-3.8 8.5-5.7 3.5-3.1 3.8-3.6 2.7-5.6-1.2-2.2-1.6-2.3-9.9-1.7-4.8.4-10 1.1-11.7 1.6-1.6.4-5.9.8-9.4.8-4.8-.1-7 .4-9 1.9-2.1 1.6-3.6 1.8-7.8 1.2-2.8-.3-5.7-1.1-6.5-1.7-.7-.6-3.9-1.8-7.1-2.8l-5.8-1.8-3.2 3.1c-2.2 2.2-4.3 3.2-6.3 3.2-1.6 0-4.6.8-6.7 1.9-2 1-5.3 2.2-7.2 2.5-2 .4-5 2-6.8 3.5-1.7 1.5-5.3 3.3-7.9 4-4.6 1.3-4.7 1.4-5.8 6.8-.8 3.8-.9 7.1-.2 11.1.8 4.2.7 6-.1 6.8-2 1.9-11.5 5.4-16 6-10 1.3-13.7 4-13.7 10.1 0 2.5-.6 3.6-2.7 4.7-1.6.8-4 3-5.5 4.9-1.5 1.9-6 5.9-10.1 9-4.1 3.1-9.4 8-11.8 10.9-7.1 8.7-11 12.7-18.1 18.4-3.7 3-12.2 10.8-19 17.3-10.1 9.8-13.1 13.4-16.6 19.9-2.3 4.4-4.2 8.7-4.2 9.6 0 .8-1.3 5.7-2.9 10.8-7.9 25.2-7.3 21.2-8 56.8l-.7 32.5 2.4 6.5c1.3 3.6 2.9 7.8 3.5 9.3 1.9 5.3 13.5 13.4 27.9 19.6 17.5 7.5 17.5 7.5 18.2 11.4.9 5 3.6 6.8 10.8 7.6 5.5.7 10.8 3 43.4 19.5 20.5 10.3 37.9 19.5 38.8 20.4.9.9 2.7 3.3 3.9 5.2 1.2 1.9 3.9 4.3 6 5.3 3.1 1.6 4.2 1.7 7.2.7 1.9-.6 3.9-1.9 4.4-2.8.9-1.6 1-1.6 1.6.1.4.9 1.3 1.7 2 1.7s1.5.6 1.8 1.4c.6 1.6 6.2 4.6 8.6 4.6 1.8.1 6.1 3.4 6.1 4.8 0 .5 1.8 1.7 4.1 2.7 5 2.3 11.1 9.1 12.8 14.3 1.2 3.4 1.1 4.3-.3 6.4-2.6 3.9-3.1 10.9-1.1 15.1 1.6 3.5 1.6 3.8-.4 8-1.2 2.4-2.1 4.8-2.1 5.4 0 .6-.6 1.6-1.3 2.2-1.9 1.5-2 16.6-.1 18.2 1.9 1.6 2 22.8.2 23.3-4.6 1.4-4.6 1.4-3.9 4.8.4 2 1.5 3.7 2.9 4.3 1.2.5 2.2 1.7 2.2 2.7 0 .9.9 3.2 2 5.1 1.9 3.2 2 4.2 1 12.4-1.3 11.5-2.5 14.7-7.1 19.5-2.1 2.2-5 6.3-6.3 9.1-2.3 4.8-2.5 6.6-2.9 23.1l-.4 17.9-3.5 1.8c-4.5 2.3-7.8 8.4-7.8 14.4v4.5h15.9c8.8 0 16.2-.4 16.5-.9.3-.4 6.3-1.1 13.3-1.4 8.8-.3 14.8-1.2 19.2-2.6 3.6-1.1 6.8-1.8 7.3-1.5.5.3.7 1.8.6 3.2-.3 2.5 0 2.7 3.4 3l3.8.3-.4-5.1c-.4-5.1-2.3-8.2-7.9-13-1.5-1.4-1.9-3.8-2.3-17.5-.3-9.5-1.1-17.9-2-20.7-.8-2.6-1.4-5.2-1.4-5.9 0-.7-2.1-3.9-4.7-7.2-6.2-7.9-7.2-11.4-8-27-.6-12.5-.4-13.6 1.7-18.2 1.8-4 2.4-7.3 2.8-15.9.3-7.5.9-11.4 1.8-12.4 1-1 1.3-3.5 1.1-9.5-.3-6.5-.9-9.2-3.1-13.1-3-5.7-3.2-7-1-12.1 2.2-5.2 1.1-10.4-3.3-15.5-1.9-2.2-3.8-3.9-4-3.6-.3.3.9 2.9 2.6 5.9 2.6 4.6 3 5.9 2.1 8.1-1.8 4.9-9.7 5.8-13.6 1.5-1.6-1.8-1.7-2.6-.5-9.6 1.5-8.7 2.8-11.5 5.2-10.8 1 .4 1.8-.1 2.2-1.2.2-1 .8-2.6 1.2-3.6.6-1.5.4-1.6-1.8-.8-2.4.9-3.7.6-3.7-1 0-.4 1-.9 2.3-1.1 1.8-.2 2.3-1 2.5-4.3.2-2.2.9-4.7 1.6-5.5 3.3-3.8 3.8-6 2.5-11.1-1.5-5.8-.3-12.2 3.3-17.1l2.1-3-3.1-6.1c-1.7-3.4-3.6-9-4.3-12.5-1.1-5.9-2.1-7.4-3.4-5.2-1 1.7-2.5 1.1-2.5-1 0-1.3.7-2 1.9-2s2.1-.9 2.5-2.6c.8-3.1.1-4.3-1.6-2.6-1.8 1.8-2.8 1.5-2.8-.9 0-1.6.4-1.9 2-1.4 1.5.5 2 .2 2-1.4 0-1.1.4-2.2.9-2.5.4-.3 1.1-5 1.4-10.5.7-13.7 1.6-15.3 9.4-16.7 11-2 15.5-4.5 17.8-10.1.7-1.7 2.6-3.9 4.2-4.9 13.7-8.5 3.4-19.6-21.2-22.8-8.6-1.2-9-1.3-8.7-3.6.1-1.3 0-3.1-.3-3.9-.5-1.1-.9-1-2.1.7-1.7 2.5-4.6 2.9-6.4.7-1.6-1.9-.6-3.2 3.2-4.1 1.8-.3 3.8-1.3 4.4-2.2.6-.8 1.1-5.7 1.2-10.8.2-9.6 1.1-13.2 6-23.3 4.1-8.6 1.8-9.9-17.5-10-8.9-.1-10.4.1-11.2 1.7-1.2 2.3-.4 5.8 2.1 9.4 1 1.4 1.8 3.2 1.8 4 0 .7.6 3.1 1.4 5.3.8 2.4 1.3 7.5 1.1 12.5-.1 4.7.3 9.1.8 9.7.6.9.5 2.4-.3 4.3-.9 2.1-.9 3.8-.2 5.9 1.3 3.6.4 4.1-7.9 4.1-7.6 0-18.2 2.4-23.4 5.3-7.3 4.1-7.3 10.7 0 15.7 2.8 2 4.5 3.8 4.5 5.1 0 1.1 1.3 3.3 2.9 4.9 2.6 2.7 7 4.3 17.6 6.6 3.8.9 4 1.1 5.2 6.4 2.1 9.3 2.5 30.2.8 38.9-1.5 7.2-4 13.6-6.7 17.4-1.1 1.4-.8 2.7 2.1 8 2.8 5.2 3.3 6.9 2.7 9.7-1.9 9.2-1.8 10.9.3 14.4 2.4 3.8 2.8 7.3 1.3 12.6l-.9 3.5-1.2-2.9c-2.4-6-13.8-18.9-15.9-18.1-1.8.7-7.2-3.2-7.2-5.2s-6.5-7.2-11.2-8.9c-1.2-.4-1.8-1.7-1.8-4 0-7.8-8.7-15.1-15.1-12.7-3.9 1.5-7.7-.1-50.5-21.3-23.3-11.5-33.7-17.2-34.8-19-2.1-3.1-7.4-6.4-10.4-6.4-1.3 0-3.4 1.1-4.7 2.4-2.3 2.3-2.5 2.3-7.7 1-29.6-7.5-35.4-12.1-40.3-32-1.4-5.9-1.6-10.7-1.2-31.4.6-26.7 1.2-32.7 4.6-44 1.3-4.1 3.4-11.6 4.8-16.5 4.1-14.9 7.4-19.6 24.5-35.3 15.3-14 27.3-25.7 36.3-35.3 6-6.4 18.9-16.9 20.8-16.9.7 0 2.2-.7 3.3-1.5 2.6-2 4.1-1.9 7.1.5 3.5 2.8 7.9 1.6 12.8-3.4 3.5-3.5 13.5-9.7 15.7-9.6.3 0 1.5 1.6 2.6 3.5 1.4 2.2 4.1 4.4 8 6.4 3.2 1.6 8.3 5.4 11.3 8.3 5.4 5.3 20.8 24.4 26.4 32.8 5 7.5 12.5 18.1 18.3 25.8 3 4.1 6 8.5 6.7 9.8 2.1 4.2 17.3 21.9 24.1 28.3 5.9 5.6 34.2 25.1 36.3 25.1.5 0 1.4.7 2.1 1.5 1.7 2.1 7.2 1.9 15.9-.5 15.6-4.4 20.7-8.8 42.1-36.6 2.5-3.2 9.1-10.9 14.8-17.2 13.2-14.6 18.9-22.3 20.2-27.5.6-2.3 2.9-9.2 5.1-15.3 3.1-8.6 4.9-11.9 7.7-14.7 2.1-2.1 4.5-3.7 5.3-3.7 1.8 0 5 3.3 6.9 7 3.4 6.4 16 22.7 21.2 27.2l5.8 5v6.3c0 5.2.6 7.5 3.6 13.6 2 4.1 4.8 8.6 6.2 10.1l2.4 2.7-1.6 10.3c-.9 5.7-2.1 13.2-2.7 16.8-.5 3.6-1.2 7.8-1.5 9.5-.3 1.6-.9 7-1.4 11.8-.7 7.2-1.5 9.9-4.4 15.3-2.4 4.3-3.9 8.7-4.5 13-.5 3.5-1.8 7.9-2.9 9.7-1.1 1.7-2.2 4.5-2.6 6-.6 2.7-8.5 15.6-11.2 18.4-1 1-13.1 19.3-17.1 25.8-.7 1.1-2.7 4.9-4.4 8.5-16.2 34-17.4 37.4-16.4 46 .5 3.9.2 7.7-.8 11.6-.8 3.3-1.8 8.6-2.1 11.9-1.3 12.5-2.9 21.5-6.8 38.5-5 22.4-5.8 24.7-10.6 35.2-4.6 9.8-6.7 20.7-5.1 26.1 1.4 4.3 1.4 29.2.1 34.2-.6 2.2-1.8 6-2.7 8.5-3 8.1-4.7 21.2-5 39-.1 9.6-.6 20.5-1 24.2l-.7 6.8h14.9l-.2-2.8c0-1.5.4-3.7 1.1-5 1-2 1.3-2.1 2.4-.7 3.3 4 4.2-1.1.9-5.3-2.2-2.8-1-4.4 1.7-2.2 1.2 1.1 1.3 1 .8-.5-.4-1-.1-2.1.7-2.7 1.1-.8 1-.9-.3-.4-1.4.4-1.8 0-1.8-1.9 0-1.8.4-2.3 1.5-1.9 2.1.9 2-3.5-.2-5.1-1.6-1.2-1.6-1.4 0-2.9.9-1 1.7-1.8 1.7-1.9.1-.1.3-3.1.6-6.6.5-5 .3-6.2-.8-5.9-.7.3-1.2 1.4-1.1 2.4.1 1-.7 3.9-1.9 6.4-1.9 4.3-2.1 4.4-2.9 2.2-.6-1.5-.4-4.6.5-8.4.7-3.3 1.2-6.7.9-7.7-.2-.9.5-2.5 1.6-3.5 1.2-1.1 2.1-1.5 2.1-.9s1.1.8 2.5.5c3.5-.6 3.1-2-1-3.8-3.2-1.3-5.2-4-2.1-2.8.8.3 1.7.1 2.1-.5.3-.6.1-1.1-.4-1.1-.6 0-1.1-.9-1.1-2s.4-2 1-2c.5 0 .7.7.4 1.5-.4.8-.1 1.5.5 1.5 1.9 0 1.2-2.8-1.1-4.4-1.9-1.3-2-1.9-1-4.1.6-1.4 1.6-2.5 2.1-2.5s.7-.9.4-1.9c-.3-1 0-2.9.7-4.1.8-1.6.8-2.5 0-3.5-1.2-1.5.3-3.1 1.9-2 1.3.7 3.1-2.7 3.1-5.7 0-1.3.7-3.3 1.5-4.4 1.7-2.3 1.9-5.4.3-5.4-.6 0-2.2 1-3.5 2.2-3.2 3-4 1.6-.9-1.7 2.9-3.1 3.4-5.5 1.1-5.5-.8 0-1.5.6-1.5 1.4 0 1.2-2 2.6-3.6 2.6-.2 0-.4-2-.4-4.5 0-4.9 1.7-9.5 3.5-9.5.7 0 1.9-1 2.8-2.2 1.4-2.1 1.7-2.2 3.1-.7 1.5 1.4 1.5 1.8-.8 5.2-2 2.9-2.2 3.8-1.2 4.7 1 .7 1.7.6 2.6-.5.7-.8 1.9-1.5 2.6-1.5.8 0 1.4-.6 1.4-1.3 0-.7 1.2-2.4 2.6-3.6 2.2-1.9 2.5-2.8 2-5.4-1.7-8.1-.2-16.6 3.8-22 1.7-2.3 1.8-3 .7-3.6-1.6-1-1-2 4.6-7.7 1.8-1.8 3.7-4.4 4.3-5.8 1.4-3.8 3-3.2 2.7 1-.1 2.7-1.2 4.7-4 7.5-2.2 2.1-3.7 4.4-3.5 5.1 1 2.8 3.8 1.7 8.4-3.3 2.7-2.9 6.1-6.6 7.7-8.2 3-3.4 3.4-4.7 1.2-4.7-2 0-1.9-1.2.3-3.6 4.2-4.5 10.2-13.2 10.2-14.8 0-.9.7-1.9 1.5-2.2.8-.4 1.5-1.1 1.5-1.6s3.6-5.5 8-11c8.5-10.6 10.2-14.2 5.2-11.1-1.5 1-4.4 3.5-6.5 5.7-2.1 2.1-4 3.6-4.3 3.4-.2-.3 2.7-3.8 6.6-7.8 3.8-4 7-7.7 7-8.3 0-.5-1.1-.6-2.5-.3-2 .5-2.5.3-2.5-1.4 0-2.9-2.4-2.4-5.5 1.1-3.4 4.1-4.2 3.2-1-1.2 1.3-1.9 3.2-4.5 4.2-5.8.9-1.3 1.6-3.8 1.5-5.6-.2-1.9.4-3.7 1.3-4.5.9-.7 1.3-2.1 1-3.1-.7-2.2.3-2.4 3-.5 4.2 2.8 18.1 9.9 23.9 12.1 5.8 2.2 17 8 22.7 11.8 2.8 1.8 3 5.7.4 5.7-1.8 0-4.1 3-5.5 7.4-.8 2.4-3.5 6.1-7 9.6-5.6 5.6-14.1 12.5-16.1 13.2-.6.2-1.1 1.2-1.3 2.3-.1 1-1.1 2.4-2 2.9-.9.6-4.7 3.9-8.3 7.3-3.6 3.5-6.9 6.3-7.4 6.3s-.9.4-.9.9c0 1.4-4.5 6.1-5.9 6.1-.6 0-1.1.9-1.1 1.9 0 1.1-.3 2.6-.6 3.5-1 2.6 2.4 3.1 5 .7 1.2-1.1 2.7-2.1 3.3-2.1.7 0 2-1.1 3-2.3 1-1.3 2.7-2.9 3.9-3.5 1.1-.6 4-2.9 6.4-5.1 2.5-2.3 4.9-4.1 5.3-4.1.5 0 2.6-1.7 4.7-3.8 2.2-2 6.2-5.5 9-7.7s8.2-6.5 11.9-9.5c3.8-3 9.4-7.4 12.5-9.8 3.1-2.4 5.6-5 5.6-5.8 0-1.8.8-1.8 2.6 0 .7.8 1.9 1.6 2.6 1.9 1.8.7-19.1 20.8-21.9 21.2-1.2.1-3.4 1.7-4.9 3.5-1.5 1.8-3.2 3.7-3.8 4.4-.6.6-1.9 2.8-2.9 4.7-1.3 2.5-2.4 3.5-3.6 3.2-2.3-.6-7.5 4.3-6.7 6.3.4 1-.1 1.8-1.3 2.1-1.2.3-1.7 1.1-1.4 2.2.7 2.6-7.9 11.1-11.2 11.1-1.4 0-2.5.4-2.5 1 0 .5.7 1 1.5 1 1 0 .7.8-1 2.4-1.6 1.6-3.5 2.4-5.2 2.3-2.4-.2-2.8.2-3.1 2.5-.2 1.6-.8 2.8-1.3 2.8s-.9.6-.9 1.3c0 .7-1.3 2.7-2.9 4.5-3.6 3.9-4.7 6.8-2.7 7.5 1.9.8 2.6-.1 2.6-3.5 0-2.9.6-3.3 3.5-2.2 1.3.5 1.4.9.4 1.5-.7.4-1.7 2.2-2.3 4.1-.8 2.2-1.7 3.3-3.1 3.3-1.1.1-1.9.6-1.8 1.3.2.7-.4 1.2-1.2 1.2-1.1 0-1.4.7-.9 2.4.4 1.7-.2 3.2-2.5 5.6-2.8 3.1-4.6 6.2-8.5 15-.8 1.9-2.4 5.1-3.4 7-1.1 1.9-2.7 6-3.7 9-.9 3-2 6.4-2.5 7.5-.4 1.1-1.7 4.3-2.9 7.1-2.2 5.6-1.9 12.1.6 13.1 1.9.7 3.2-1.3 2.6-3.8-.3-1 .4-3.4 1.6-5.2 1.2-1.9 2.1-5 2.1-7s.4-3.8.9-4.1c.5-.3 1.2-2.3 1.6-4.3.6-3.5 1.9-5.2 3.8-5.3.4 0 .3.9-.3 1.9-.5 1.1-1 4.2-1 7 0 3.9.4 5.1 1.5 5.1 2 0 1.9 1-.2 2.5-1.4 1-1.5 1.7-.6 3.6.7 1.7.7 2.9 0 4-.8 1.3-.6 2.4.6 4.2 1.4 2.2 1.5 2.7.1 3.8-.8.6-1.4 1.9-1.3 2.8.2 1.8-.6 4.3-2.6 8.3-1.5 3.1-.9 6.8 1.1 6.8.8 0 1.7-.7 2.1-1.5.5-1.3.8-1.3 2 .4 1 1.5 1.1 2.6.3 4-.5 1.1-1 2.9-1 4 0 1.2-.4 2.1-1 2.1-1.5 0-1.2 3 .3 3 .6.1-.3.7-2.1 1.5s-3.1 1.9-2.8 2.4c.4.5.2 1.2-.4 1.6-1.6 1-1.2-4.6.5-7.9 1.8-3.4.8-5.1-2.3-4.2-2.2.7-3.3 4.1-3.7 10.8l-.2 3.8h40.9c34.3 0 40.9-.2 40.5-1.4-.4-1 .4-1.3 3.4-1.2 2.1 0 4.1.6 4.4 1.3.3.9 2.7 1.3 7.4 1.3h6.9l-1.8-4.8c-1-2.6-3-7.4-4.5-10.7-1.4-3.3-3.2-7.4-4-9-.7-1.7-2.1-6.6-3-11-4.2-19.7-9.4-31-18.9-41.5-9.7-10.8-16.2-18.3-17-19.8-.5-.9-3.3-3.9-6.3-6.6-2.9-2.7-5.3-5.5-5.3-6.4 0-3.6 9-12.7 31.3-31.5 5-4.3 15.1-13.3 22.2-20.1 7.2-6.7 15.1-14.1 17.7-16.5 4.7-4.2 15.9-20.1 19.5-27.6 1.1-2.2 3-6.7 4.2-10 4.5-12.2 15.1-24.4 32.1-36.5 10-7.2 16.6-13 22-19.5 16.1-19.3 26.3-41.4 30.6-66.5 2.3-13.4 2.4-33 .2-38-.9-1.9-2.6-5.8-3.8-8.5-1.2-2.8-2.9-5.8-3.7-6.7-.9-1-2-3.7-2.5-6-.5-2.4-1.4-6.3-2-8.8-.5-2.5-1-6.3-.9-8.5 0-2.2 0-7.8.1-12.5 0-4.7.4-9.6.9-11 4.2-11.9 6.5-29 5.9-43.5-.8-17.7-2.9-39.8-4.4-45.6-.8-3-1.4-6.2-1.4-7 0-2 12.6-4.1 15.5-2.6 1.1.6 5.1 1.6 9 2.4 31.3 6.1 39.2 6.6 53.9 3.2 5-1.2 11.6-3.5 14.6-5 8.8-4.6 25.9-18.3 30.6-24.4l2.5-3.3-2-3.9c-4.2-8.2-10.1-12.4-24.3-17.5-6.2-2.2-12.9-4.4-14.8-5-1.9-.6-3.9-1.4-4.5-1.8-2.9-2.4-17-4-28.3-3.4l-11.7.7-11.5-5.6c-6.3-3-14.5-7.5-18.1-10-10.6-7.1-49.4-36.2-60.9-45.7-15.9-13-26.2-18.2-40-19.9-7.1-.9-10.3-.3-22.5 4-3.7 1.3-11.4 2.6-20 3.5-17.5 1.6-23.3 2.9-31.5 6.6-6.2 2.8-7 3-15.8 2.4l-9.4-.6-6.3-5.1c-8.7-7-20.4-20.5-30.5-35.1-2.9-4.3-6.2-8-7.2-8.4-1-.3-1.8-1.1-1.8-1.8 0-1.5-8.9-8.2-15.9-11.9-15.5-8.3-32.6-11-53.1-8.5zm63.3 48.4c.3.3-.6 1.6-2 2.8-1.8 1.6-2.6 3.4-2.8 6.2-.1 2.1-.3 4.6-.4 5.5 0 .9-1 1.9-2.1 2.2-1.2.3-2 1.4-2 2.5 0 1.2-.4 2.4-1 2.7-1.3.8-1.3 4.5-.1 4.5.5 0 2.1-.4 3.5-1 2-.7 2.6-1.6 2.6-4 0-1.6.5-3 1.2-3 .6 0 1.9-.7 2.9-1.6 1.6-1.5 1.7-1.3 1.2 2.4-.3 2.5 0 5 1.1 7 2.1 4.2 2 5-.6 4.5-1.6-.3-2.7.3-3.6 1.6-.7 1.2-.8 2.1-.3 2.1s1.1 1 1.3 2.2c.2 1.5.9 2.2 1.9 2 .9-.1 2.9.5 4.5 1.3 4.2 2.2 4.8 2 9.1-2.9 3.7-4.2 6.3-10 6.3-14.2 0-1.6.2-1.6 1.6.4 1.9 2.7 5 3.1 3.9.4-1.9-4.6-1.8-5.2 1.1-5.2 2.8 0 6.4 2.5 6.4 4.4 0 .7 1.2 1.3 2.7 1.4 3.3.3 4 .9 2.5 2.4-2.7 2.7-.5 7.1 2.4 4.7.8-.6 1.7-.9 2-.6.3.3-.4 1-1.5 1.7-2.7 1.4-1.6 3.4 1.4 2.6 1.9-.5 2.2-.3 1.8 1.4-.3 1.1-.9 2.3-1.4 2.6-.5.3-.9.9-.9 1.5 0 1.2 3.7 1.2 4.4 0 .3-.5 2-1.1 3.8-1.4 7.3-1.3 9.8-2 9.8-2.6 0-.4 3.3-1.3 7.4-2 4.1-.6 8-1.9 8.6-2.7.7-.7 1.8-1.4 2.4-1.4.6 0 2.8-1.1 4.8-2.5s5.8-3.2 8.4-4.1c4.5-1.5 4.8-1.5 6.1.2 1.8 2.4 1 6.6-2.1 10.7-1.3 1.8-2.7 4.7-3.1 6.4-.3 1.8-1 3.3-1.5 3.3-.4 0-1.1 1.1-1.4 2.5-.4 1.4-1.1 2.5-1.6 2.5-.6 0-1 .7-1 1.5s.5 1.5 1 1.5c.6 0 1 .9 1 2s.7 2.3 1.5 2.6c2.1.9 1.9 3.7-.6 6.8-2.4 3.1-2.4 3.1 1.7 4 2.6.6 3.4.3 4.8-2 1.3-1.9 2.1-2.3 2.9-1.5 1.7 1.7 2.3 1.4 4.5-2.1 1.6-2.5 1.8-3.7 1-5.7-.5-1.4-1.1-5.8-1.3-9.6-.1-3.9-.1-6 .2-4.8.2 1.3 1.1 2.3 1.9 2.3 1.3 0 2-4 1.6-9.2C474 93.9 483 85 489.1 82c3.8-1.8 5.9-2.4 6.2-1.6.3.8.8.7 1.9-.2.9-.7 5.5-1.6 10.2-1.9 7.8-.5 8.6-.4 8 1-.4 1.2-.1 1.7 1 1.7.9 0 1.6-.5 1.6-1.1 0-.7 1-.9 2.8-.4 1.5.4 3.4.8 4.2.9.8.1 2.5.8 3.7 1.4 1.2.7 3.1 1.2 4.2 1.2 2.5 0 8.4 3.4 7.5 4.3-.4.4.4 1.1 1.7 1.6 1.3.5 4.4 2.8 6.9 5 2.5 2.3 4.8 4.1 5.3 4.1.4 0 .7.7.7 1.5s.9 1.5 1.9 1.5c1 0 2.1.7 2.5 1.5.3.8 1.2 1.5 2.1 1.5.8 0 1.5.4 1.5 1 0 .5 1.1 1.2 2.5 1.6 2.8.7 6.5 5.2 5.8 7.1-.3.7 0 1.3.5 1.3.6 0 1.2-.6 1.5-1.3.3-.8 1.1-.6 2.8.9 1.3 1.2 3.3 2.4 4.5 2.8 1.1.3 3.6 2.2 5.5 4.1 1.8 1.9 3.8 3.5 4.3 3.5s1.9 1.1 3.1 2.4c1.3 1.4 2.5 2.3 2.7 2 1-.9 6.8 1.9 7.3 3.6.7 2.3 8.3 8.6 12.7 10.6 1.8.8 5.3 3 7.8 4.9 2.5 1.8 5.6 3.4 7 3.4 2.5.1 5.5 3.4 4.5 5.1-1.1 1.8-8.3 2.2-10.7.6-1.2-.9-3-1.6-3.9-1.6-.9 0-2.7-.9-4.1-1.9-2.9-2.3-7.8-3.8-7.8-2.4 0 1.2 2.9 3.8 5 4.6.8.3.3.6-1.2.6-1.6.1-2.8-.4-2.8-.9 0-.6-.6-1-1.2-1-.7 0-3.5-2.4-6.3-5.3-7.4-7.6-11.4-10.7-13.9-10.7-1.3 0-4.4-1.7-7.1-3.8-8.3-6.4-14.2-5.1-33.5 7.3-4.7 3-9 5.4-9.6 5.5-2.5 0-4.7 3.9-4 7.1l.6 3.2-1.9-2.4c-1-1.3-2.2-4.9-2.6-7.9-.4-3-1.1-6-1.5-6.5-.5-.6-1-2.1-1.2-3.5-.2-1.7-.8-2.4-2-2.2-1 .2-1.8-.2-1.8-.8 0-.5-1.6-1-3.6-1-3.8 0-3.7-.2-1.7 4.7.3.7-.2 1.3-1.1 1.3-2.2 0-3.6 3.1-3.5 7.7.1 2.1-.3 5.8-.9 8.3-.7 3.2-.7 4.7.1 5.2.8.5.6 1.7-.6 4.3-2.3 4.8-2.2 5.7.8 4.9 1.6-.4 2.5-.2 2.5.6 0 .6.4.9.9.6.5-.3 2.3-.1 4 .5 2.6.9 4.3.8 8.7-.6 2.9-.9 5.6-2.1 6-2.6.3-.5 1.7-.9 3.2-.9 2.1.1 4.2 1.8 9.4 7.9 6.2 7.3 18.7 17.1 21.8 17.1 1.7 0 10.2 5 12.7 7.6 1.2 1.2 2.8 2.4 3.5 2.7 2 .8-3.1 4.5-5.3 4-1.4-.4-1.9 0-1.9 1.6 0 1.7-.6 2.1-2.9 2.1-4 0-4.9 2.7-1.3 4.1 1.9.8 3.2.7 4.5-.1 2.5-1.5 3.1-.7 1.5 2.2-.7 1.2-1.4 2.5-1.5 2.6-.4.9-8.2 2.5-12.3 2.6-3.9.1-4.5.4-4.8 2.3-.4 2.7.4 2.8 9.5 1.1 5.7-1 6.7-1 9.5.7 2.9 1.7 3.2 1.7 4.3.1 1.1-1.5 1.3-1.5 1.9-.1 1 2.7-.5 4.4-7.6 9.2-3.9 2.6-7.3 5.3-7.5 6-.3.8-1.3 1.1-2.5.7-1.7-.5-1.8-.3-.9 1.5 1.2 2.2 3.1 2.9 3.1 1.1 0-.5 1.7-1.7 3.8-2.7 2-.9 4-1.9 4.5-2.1.4-.2.7 1.1.7 2.8 0 3.6-5.5 13-7.6 13-1.8 0-6.5 4.9-6.2 6.3.3 1.4-3.3 7.7-4.4 7.7-.4 0-.8.4-.8 1 0 2.2 2.8.7 7.2-3.8 6.5-6.6 17.9-20.5 17.3-21.1-.3-.2.2-1.5 1.1-2.9 1.3-2 1.4-2.6.3-3.3-.7-.4-1-1.1-.6-1.6.4-.4 1.7-.1 2.8.6 1.8 1 2.4 1 4.1-.5 1-1 1.7-2.6 1.5-3.6-.6-2.1 2-4.8 2.7-2.7 1.3 4.2 1.6 7 .6 6.4-.5-.3-1 .2-1 1.3s.7 2.3 1.6 2.6c.8.3 1.2 1.1.9 1.7-.5.8-1 .8-1.8 0-2-2-3-1.2-2.3 1.9.3 2-.1 4.1-1.2 6.3-2.2 3.9-4.6 14.3-3.7 15.7 1.2 1.9 3.3-.8 4-5 .4-2.1 1.3-4.6 2-5.7.8-1 1.5-4 1.5-6.7 0-4.7 1.4-5.9 1.5-1.3 0 1.5.6 2.2 1.9 2.2 1.7 0 1.9.8 2.1 6 .1 7.2-.2 8.5-2.1 7.8-.9-.3-1.4.1-1.4 1.1 0 .9.7 1.9 1.6 2.3 1.5.5 1.5.7-.1 1.5-1.2.7-1.5 1.7-1 3.8.3 1.6.2 3.1-.4 3.5-1.4.8-1.4 4.8-.1 6.1.6.6.6 2.3-.1 4.8-.6 2.1-.8 5.4-.5 7.2.4 1.9.2 3.5-.4 3.9-.6.4-.8 2.1-.4 4.3.6 3.4.5 3.5-.8 1.8-1.6-2.1-4.3-1.3-3.4 1 .3.8-.3 2.3-1.4 3.4-1.1 1.1-2 2.4-2 2.9s-.7 1.5-1.6 2.2c-2.3 1.9-6.4 8.5-6.4 10.3 0 2.2 1.9 3 4.3 1.7 1.9-1 3.9-4.8 6.1-11.4.7-2.3 3.6-2.2 3.6.3 0 1-1.1 3.1-2.5 4.4-2.1 2.1-2.4 3-1.5 4.5 1.4 2.7 1.3 4.1-.5 4.1-.7 0-1.8.7-2.3 1.6-.7 1.3-1.3 1.4-5 .1-3-1-4.4-1.1-5.2-.3-.8.8-1.3.8-1.8 0-.8-1.2-13.2-1.2-43.6.1l-18.8.8 2.5-2.5c3-3 5.2-9.7 3.7-11.2-.6-.6-1-1.8-1-2.8 0-.9-.8-2.2-1.7-2.7-1.6-.9-1.6-1.2-.3-2.1 1-.7 1.1-1.2.4-1.8-.6-.4-1.3-1.5-1.7-2.5-.7-1.8-2.7-2.4-2.7-.7 0 .5-.9 1.8-2.1 2.9-2.4 2.2-2 4.7 1.3 9.2 2.5 3.3 1.2 6.5-3 7.5-1.5.4-3.7 1.8-4.9 3.3-2.1 2.4-2.4 2.5-3.3.8-1.4-2.2-3-2.2-3 .2 0 1.6-1.3 2-9.2 2.9-5.1.6-9.7.7-10.2.2-.4-.4-2.2-.4-3.9.1-3.6 1-15 1.2-18.4.3-1.3-.4-2.3-1.2-2.3-1.9 0-2.2 5.1-3.3 16.8-3.9 11.5-.5 14.6-1.5 14-4.5-.3-1 .7-2 2.6-2.7 1.7-.6 3.8-2.5 4.8-4.2l1.8-3.2h-3c-1.6 0-3.9.4-5.2.9-11.3 4.3-14.3 3.7-22-4-3.2-3.2-5.8-6.6-5.8-7.7 0-1-.9-2.7-1.9-3.6-1.1-1-2.1-2.8-2.3-4-.2-1.3-1-2.1-2.3-2.1-2.8 0-3.2 5.9-1 14.8 1.8 7.5 1 10.1-2.9 9.5-1.6-.2-2.3-1.5-3.3-5.7-.6-2.9-.9-6-.6-6.7.3-.8 0-2.1-.7-2.9-1-1.2-.8-2.1.9-4.8 2.6-4.3 2.7-6.1.2-5.4-2.3.6-7.6-2.4-9-5.2-.8-1.3-.8-2.8-.1-4.6.6-1.5.8-3 .6-3.4-.3-.4 0-2.4.6-4.5 1.7-5.4-.2-6.9-4.1-3.2l-2.9 2.8-1.4-2.1c-.7-1.1-2.3-2.1-3.5-2.1-2.5 0-5.8-2.8-7.4-6.3-1.3-2.9-3.2-6.2-4.6-7.8-.6-.8-1.4-4.6-1.8-8.6-.6-6-1-7.3-2.7-7.9-1.3-.4-2.5.1-3.4 1.3-1.4 1.7-1.5 1.6-1.1-1 .2-1.5.1-3-.3-3.2-.4-.3-3.9.6-7.6 2-3.8 1.4-8.2 2.5-9.9 2.5-3.2 0-12.1-4.1-19.5-9-8.5-5.6-11.8-7-16.5-7-3.3 0-4.5.4-4.5 1.5 0 .8.3 1.5.8 1.6 5.3.5 9 2.5 12.8 6.8 3.5 3.9 3.7 5.5 1.4 9.8-1.1 2.1-2 4.5-2 5.4 0 3.3-13.4 25.1-21.4 34.9-7.9 9.6-12.6 16.5-12.6 18.4 0 2.3 3.7 2 4.5-.4.3-1.1 3.1-4.1 6.1-6.8 3.1-2.6 7.2-7.2 9.2-10.2 3.1-4.7 10.5-14.5 13.3-17.4 1.2-1.3 5.1 3.4 4.4 5.2-.3.7-.5 1.7-.5 2.1 0 .4-2 3.8-4.5 7.6-5.1 7.9-11.6 15.1-14.5 16-1 .3-2.2 1.5-2.5 2.6-.4 1-2.9 4.2-5.6 7.1-2.7 2.8-4.9 5.8-4.9 6.5 0 .8-4 5.6-8.9 10.6-4.9 5.1-10.8 11.6-13.1 14.4-4 5.1-6 6.5-6 4.3 0-.6-.9-1-2-1-1.5 0-2.6 1.3-4 4.6-1.7 3.9-2.2 4.4-3.5 3.4-1.1-.9-2.2-1-3.8-.4-3.1 1.4-6.5.6-7.7-1.7-.6-1-2-1.9-3.1-1.9s-1.7-.5-1.4-1c.3-.6 3-1 6-1 2.9 0 6-.3 6.9-.6 2.3-.9 1.9-3.2-.6-4-1.3-.3-3.1-1.3-4-2.1-1.2-1.1-2.1-1.2-3.7-.4-2.9 1.6-4.8 1.4-8.1-1.1-3.4-2.5-4.7-2-3 1.1.8 1.7.8 2.1-.3 2.1-.8 0-2-.7-2.7-1.5-1.2-1.4-1.5-1.4-3 0-1.4 1.3-2.2 1.3-5.6.2-2.9-1-5.1-3-8.7-7.7-5-6.6-5.6-9.1-1.1-4.7 2.9 2.9 4.4 3.4 4.4 1.5 0-1.1-4.2-5.8-10.7-12-2.6-2.5-3-3.4-2.1-4.5.9-1.1 0-2.4-4.3-6.6-8.2-7.8-19-17.2-20.3-17.5-1.1-.3-2.1-2-7.2-12.1-2.9-5.8-18.3-28-21-30.2-1.3-1-1.7-1-2.5.2s-1 1.2-1.9-.1c-.5-.8-1-2-1-2.6 0-.6-.7-1.7-1.5-2.4-2.2-1.9-1.8-2.8 1.8-4.3 1.7-.8 4.1-2.4 5.2-3.7 1.9-2.1 1.9-2.2.1-3.5-1.4-1.1-2.2-1.1-3.7-.2-1.5.9-2.4.9-4.1-.2-1.3-.8-4-2.3-6.1-3.3-2.9-1.5-3.7-2.4-3.5-4.1.2-1.8-.3-2.3-2.5-2.5-1.6-.2-3.5.2-4.3.9-1.1.9-1.7.9-3-.2-1.3-1-1.7-1-2.4.1-.7 1.2-1.3 1.2-3.4 0-1.4-.7-2.6-1.6-2.6-2 0-1 13.2-6 15.7-6 1.2 0 2.5.4 2.8 1 .3.5 1.4 1 2.4 1 2.5 0 8.7 6.7 8.3 9-.4 2.3 1.5 2.9 10.2 3.2 5.2.3 6.1.6 7.5 2.9 1.5 2.5 6.7 8.9 11.8 14.6 1.2 1.4 2.5 3.4 2.8 4.4.4 1.1 1.1 1.9 1.6 1.9s3.1 2.1 5.8 4.7c6.9 6.9 14.9 13.7 16.4 14.1.6.2 3 1.2 5.2 2.2 2.2 1.1 6.9 3.2 10.5 4.8 6.3 2.8 10.9 6.1 21.2 14.9 2.7 2.4 5.4 4.3 6.1 4.3.7 0 2.8 2.5 4.7 5.5 1.9 3 4.1 5.4 4.8 5.5.8 0 1.1.7.7 1.9-.3 1 .1 2.4 1 3.1 1.7 1.4 2.1 3.5.4 2.4-1.2-.7-2.9 1.2-2.9 3.3 0 .7.7 1.3 1.5 1.3 1.1 0 1.4 1.1 1.2 4.7-.1 3.5.2 4.8 1.3 5 2 .4 5-6.1 5.4-11.9.4-6 1.2-7.1 4.4-6.3 4.1 1 4.6-1.5 1-5.2l-3.2-3.3h4.1c5.1 0 10.3-1.8 10.3-3.6 0-1.1-1.6-1.4-6.3-1.4-6.8 0-7.5-.4-10.9-6.6-1.6-2.9-1.5-7.4.3-7.4.4 0 1.5-2.3 2.3-5.1.9-2.8 2.9-6.9 4.6-9.2 1.6-2.2 3-4.9 3-5.8 0-.9.7-2.2 1.5-2.9.8-.7 1.5-1.9 1.5-2.6 0-.8 1.5-3.1 3.4-5.1 1.8-2.1 4.5-5.7 6-8.1 1.4-2.3 3-4.2 3.4-4.2.4 0 2.3-1.4 4.2-3.1 1.9-1.7 4.5-3.5 5.8-4 1.2-.5 2.2-1.5 2.2-2.3 0-.7.7-1.6 1.5-2 2.2-.8 1.8-3.6-.5-3.6s-2.5-.9-.8-4.5c.9-2.1.9-2.8-.1-3.4-.9-.6-1-1.1-.2-1.5 1.8-1.1 1.3-3-1.1-4.1-2.7-1.2-3.6-3.5-1.4-3.5.9 0 3-2.3 4.7-5 1.7-2.8 3.4-5 3.8-5 .4 0 2.3-1.5 4.2-3.4 9-8.4 20.8-15.1 22.4-12.6.7 1.1-.8 4.8-4.3 10.6-1.6 2.7-3.3 7-3.6 9.6-.7 4.4-.6 4.8 1.4 4.8 2.8 0 7.7-5.5 8.4-9.6.7-3.6 8.5-15.5 12.5-19 3.2-2.8 5.6-2.3 9.3 1.9 2.3 2.6 2.6 3.3 1.5 4.6-1.7 2.2-4.7 8.8-4.7 10.6 0 .8.7 1.5 1.5 1.5.9 0 1.5.9 1.5 2.5 0 1.7.6 2.5 1.6 2.5.9 0 2.2.7 2.9 1.7.7.9 1.7 1.3 2.3.9 1.9-1.1 1.4-3.7-.8-4.3-2.4-.6-2.4-.7-.4-3.8 1-1.5 1.4-3.6 1.1-5.2-.3-1.5-.1-3.6.4-4.6 1.1-2-1.9-9.8-5-13.2-1.6-1.6-1.8-2.8-1.2-6.8.6-3.6.5-4.7-.6-4.7-2.1 0-1.5-2.7.7-3.3 2.5-.6 3.7-3.4 2.1-5-.8-.8-1.9-.7-4.1.6-2.8 1.7-2.9 1.7-4-.3-.8-1.4-1.7-1.9-3-1.5-1.5.5-1.7.2-1.3-1.5.3-1.1 1.2-2 2-2s1.1-.5.7-1.1c-.4-.8-.9-.8-1.7 0-1.6 1.6-3.7 1.3-3.7-.4 0-.8-.5-1.5-1.1-1.5-.6 0-.8-.9-.4-2 .5-1.4.2-2-.9-2-2.1 0-2.1-.1 1.4-7 3.3-6.5 3.8-10 1.5-10-.8 0-1.5.6-1.5 1.2 0 2.7-2-1.8-2-4.5 0-1.5-.7-4.2-1.7-6-.9-1.7-1.9-4.2-2.2-5.5-.8-3-7.9-5.9-8.8-3.6-.3.8-1.1 1.4-1.9 1.4-.8 0-1.4.7-1.4 1.5s.7 1.5 1.5 1.5 1.5-.5 1.5-1.2c0-.8.5-.8 1.5.2 2.4 2.4 3.5 21.1 1.4 23.6-.6.8-.9 2.1-.5 2.9.3.8-.7 3.8-2.1 6.7-1.8 3.6-2.8 4.7-3.1 3.5-.3-1.7-2.3-2.3-3.5-1.1-.3.3-.2 1.7.3 3 .9 2.2.4 2.7-4.8 6.1-10 6.4-19.3 9.1-20.6 5.8-.3-.8-1.2-1.5-2.1-1.5-.8 0-1.5-.3-1.5-.7 0-1.3 3.4-4.3 4.9-4.3.9 0 2.5-1.4 3.5-3.1 1.8-3 1.8-3.1-.5-5.5-1.2-1.3-2.8-2.4-3.5-2.4-.6 0-1.4-.7-1.8-1.5-.3-.9-1.8-1.5-3.6-1.5-2.4 0-3-.4-3-2 0-5.9-5.6-10.6-14.8-12.5-2.9-.6-3.4-.4-3.9 1.4-.3 1.2-.9 2.1-1.4 2.1-.5 0-.9.7-.9 1.5 0 1 1 1.5 3.3 1.5 5.4 0 6.5 1.6 2.1 3-2 .7-4.9 2.4-6.2 3.9-1.6 1.7-2.6 2.2-2.9 1.3-.3-.6-1.5-3.1-2.9-5.5-2.8-4.9-4.5-8.5-7-14.6-1-2.4-4.3-6.8-7.2-9.7l-5.4-5.3 4.8-4.2c2.7-2.3 5-4.8 5.2-5.5.6-2.3-3.3-1.6-5.8 1.1-1.3 1.4-2.5 2.3-2.8 2-.7-.6 7.8-8.5 9.2-8.5.6 0 1.9-.9 2.9-2 1.7-2 1.6-2-1-1.4-1.6.3-4.1 1.3-5.7 2-3.8 1.8-4.2 1.3-1.1-1.6 2.5-2.4 3.3-5 1.5-5-1.2 0-8.2 4.8-9.2 6.3-1.2 1.8-1-.5.3-4.2s6.4-6.4 9-4.8c1.3.8 2.4.3 5.1-2.4 2-2 5.4-4 8.1-4.8 4.1-1.2 5.1-1.1 8.1.3 2.1 1 6.4 1.6 11.2 1.7 9.2.2 11 1.1 14.7 7 1.6 2.4 4 5.2 5.3 6.2 2.3 1.7 2.7 1.7 4.9.3 1.3-.9 3.1-1.6 3.9-1.6 3.1 0 6.7-4.4 7.1-8.7.6-5.6 2.9-9.9 6.3-11.7 3.1-1.7 3.6-1.8 4.5-1zM383 70c1.5 1.6 3.5 3 4.4 3 1.2 0 1.6 1 1.6 3.7l-.1 3.8-1.7-2.3c-.9-1.3-3.4-4.1-5.4-6.3-2.1-2.1-3.8-4.1-3.8-4.4 0-1.4 2.5-.2 5 2.5zm-6 12.2c0 1.9-.2 2-1 .8-1.3-1.9-1.3-3 0-3 .6 0 1 1 1 2.2zm36.9 7.4c.2.2.2.7-.2 1-1 1-5.8-.6-5.2-1.7.6-.8 4.2-.4 5.4.7zm-91.8 47.6c2.8 3.4 2.4 5.1-.8 4.5-1.8-.3-3.4 0-4.5 1-1.7 1.5-1.8 1.4-1.8-1.9 0-3.1 1.7-5.1 4.8-5.7.2-.1 1.2.9 2.3 2.1zm254.3 0c.9 1.2 1.6 2.6 1.6 3 0 1-14.1 9.6-18.1 10.9-1.9.7-3.8 1.5-4.4 1.9-2.4 1.8-7.2 2.1-8.5.5-1.1-1.3-.9-2 1.5-4.5 1.6-1.7 3.7-3 4.6-3 1 0 3.8-1.4 6.2-3 2.5-1.7 4.8-3 5.2-3 .4 0 2-1.1 3.7-2.5 3.7-3.1 6.2-3.2 8.2-.3zm-49.9 6.8c-.3.5-1.1 1-1.6 1-.6 0-.7-.5-.4-1 .3-.6 1.1-1 1.6-1 .6 0 .7.4.4 1zm63.9 1c2.2 1.3 4.4 4.4 7.1 9.7 2.1 4.3 5 9.2 6.5 10.9 1.4 1.6 3.1 4.3 3.7 6 2.3 6.3 3.3 10.1 3.3 12.2 0 1.1.5 2.4 1 2.7.6.3 1 2 1 3.7v3.1l-5.6-.6c-3.9-.4-6.4-1.3-8-2.8-2.8-2.7-3-3.8-.7-5.4 1.5-1.1 1.5-1.5.3-3-1.4-1.7-1.6-1.7-17.4-.2-1 .1-2.1-.4-2.3-1.1-.3-.6.2-1.2 1-1.2s2.5-.9 3.8-2l2.4-2-2.4-.7c-2.3-.6-2.4-.7-.5-1.4 3.1-1.2 4.4-1 3.8.6-.4.8-.1 1.5.5 1.5s1.1-.7 1.1-1.5c0-1.2.9-1.5 3.6-1.3 4.8.4 5.5-1.6 1.5-4-4.2-2.5-12.1-1.8-16.9 1.4-4.4 3-5.2 3-7.6-.2-1.5-2.2-1.6-2.8-.5-3.5 1.9-1.2 4.6-1.1 5.4.1 1 1.6 2.5 1.2 2.5-.6 0-1.3.7-1.5 3-1.1 1.6.4 3.2.2 3.6-.4.4-.7 2.3-.8 5-.4 5.9.9 6-1.6.1-4.4-5.2-2.5-5.3-2.5-14.7-.2-4.1 1.1-7.6 1.8-7.8 1.6-.6-.5 11.2-9 13.3-9.6 1.4-.3 2-1.4 2-3.3 0-2 .7-3.1 2-3.7 3-1.1 3.5-1.1 6.9 1.1zM325 148.5c-2.7 1.4-3.6 1.3-2.5-.4.3-.6 1.6-1.1 2.8-1.1 2.1.1 2.1.1-.3 1.5zm316.5 6.6c-.7 1-3.5.1-3.5-1.1 0-.5.9-.6 2-.3s1.7.9 1.5 1.4zm-81.9 5.5c-3.2 2.8-4.3 2.6-2.6-.5.6-1.2 2-2.1 3.3-2.1 2.1.1 2.1.2-.7 2.6zM623 159c0 .5-.9 1-1.9 1-1.1 0-2.3-.5-2.6-1-.4-.6.5-1 1.9-1s2.6.4 2.6 1zm50 3c0 1.4 5.6 1.2 8-.2 1.5-1 2.2-1 3.2 0 .6.6 2.2 1.2 3.5 1.2 1.3 0 2.3.4 2.3.9 0 .8-9 2.3-15.5 2.6-4 .2-15.3 2.4-18.7 3.7-1.6.6-2.8 1.7-2.8 2.5 0 1.3-.2 1.3-1.7.2-1.5-1.3-1.5-1.4 0-1.7 2.4-.5 2.1-2.9-.3-3.5-1.1-.3-2-1.2-2-2.1 0-1.9 2.6-2.2 3.3-.4.3 1 .9 1 2.9-.1 1.5-.7 3.1-1.1 3.6-.7.6.3 1.4.2 1.7-.4.4-.6 1.6-.8 2.6-.5 1.1.4 2.5.2 3.2-.3 1-.9 3.5-1.7 6-2.1.4 0 .7.3.7.9zm-484.9 6.1c3.5 7.1 4.2 10 2.9 12.5-2 3.6-4.1 2.6-7.2-3.2l-2.8-5.1 2-2.3c1.1-1.3 2-2.7 2-3.2 0-1.4 2.2-.4 3.1 1.3zm33.1.6c2.2 2 2.4 6.1.3 6.9-2.6 1.1-6.5-2.3-6.5-5.6 0-2.4.4-3 2.2-3 1.2 0 3 .7 4 1.7zm466.8 1.4l8.5.1-6 1.3c-3.3.7-6.2 1.1-6.5 1-.7-.4-13 2.7-24.4 6.3-6.8 2.1-9 3.2-9.7 4.9-.5 1.3-1.7 2.3-2.8 2.3-1.1 0-4.4.9-7.3 1.9-5.5 2-18.5 5.1-21.4 5.1-1.4 0-1.4-.2-.3-1.6.9-1.1 1-2 .2-3.3-.6-.9-1.4-4.1-1.7-7.1l-.7-5.5 3.8 4.1c2.1 2.3 4.8 4.7 6.1 5.4 2.7 1.3 5.2.7 5.2-1.3 0-1.8 8.8-1.5 11.8.4 2.3 1.4 3.8.8 2.7-1.1-.4-.6-1.3-.9-2.1-.6-1.5.6-1.9-1.2-.6-3 .4-.6 2.4-1.4 4.6-1.7 2.1-.3 4.7-1.3 5.7-2.2 2-1.9 6.8-3.3 15.2-4.5 3.2-.4 6.1-1.1 6.5-1.5.4-.3 1.6-.4 2.7-.1 1.1.3 5.8.6 10.5.7zM202 172c-3.2 2.5-4.3 2.5-2.8 0 .7-1.1 2.2-2 3.3-2 1.8 0 1.8.2-.5 2zm501-1c-3.6 1.1-5 1.1-5 0 0-.6 1.7-1 3.8-.9 3.3.1 3.4.2 1.2.9zm-525.8 5.8c3.2 3.8 6.2 10.8 5.5 12.6-.4.9-1.8 1.6-3.2 1.6-2 0-3-1.1-5.5-6-3.3-6.6-3.6-8-1.8-9.8 1.7-1.7 2.3-1.5 5 1.6zm403.3-1.8c-.3.5-1.1 1-1.6 1-.6 0-.7-.5-.4-1 .3-.6 1.1-1 1.6-1 .6 0 .7.4.4 1zm55.7 1c1.8 0 2 .2.8 1-.8.5-2.7 1-4.2 1-2.2 0-2.8-.5-2.8-2 0-1.7.3-1.9 1.9-1 1.1.5 3 1 4.3 1zm78.4-.9c.4.7 2.2.9 4.4.6 6.2-.8 7.6 2.4 3.9 8.7-2.3 4-3.4 4.4-4.3 2-.4-1.1-1.3-1.4-2.9-1-1.2.4-2.7.8-3.2.9-.6.1-2.1 1-3.5 2-1.3.9-3.7 1.7-5.3 1.7-1.5 0-4.4.8-6.5 1.8-2 1-7.5 2.4-12.2 3.1-4.7.7-9.8 1.6-11.5 2.1-4.3 1.2-13.5 1.9-12.9.8.3-.4 1.7-.8 3.1-.8 1.5 0 3.7-1 5-2.2 2-1.8 2.6-2 3.3-.9.7 1.2 1.1 1.2 2.3-.1 2.3-2.2 10.6-4.3 12.6-3.2 1.1.7 2.4.6 4.1-.3 1.4-.7 4.4-1.3 6.8-1.3 4 0 7.9-1.4 9.3-3.4.4-.5 1.2-.6 1.8-.2 2 1.3 6.1-2.4 6.1-5.6 0-3 0-3-4.2-2.4-2.3.4-4.6 1.2-5 1.9-.5.8-5.4 1.2-16.7 1.3-13.2 0-16.7.4-20.1 1.9-2.9 1.3-4.6 1.5-6.1.8-1.9-.8-1.4-1.1 3.7-2.2 3.2-.7 9.3-2.2 13.4-3.3 4.7-1.3 11.5-2.2 18.3-2.4 6-.1 11.2-.5 11.5-.8.9-1 4-.7 4.8.5zm-552.1 3.5c.9.4 2.8 3 4.3 5.8 4.2 8.1 4.3 8.5 2.2 9.6-2.5 1.4-4.7.4-5.9-2.8-.5-1.5-1.8-3.9-2.7-5.3-1.1-1.7-1.5-3.5-1-5.3.7-2.9.7-2.9 3.1-2zm44.3.6c-.6 1.6-7.7 5.8-10 5.8-1.4 0-1.6-.5-.9-2.3.6-1.5 2.2-2.6 5.2-3.4 5.8-1.5 6.1-1.5 5.7-.1zM150 183c0 .5.8 1 1.8 1s2.6 1.5 3.7 3.6c1.6 3 1.7 3.7.4 4.5-3 1.9-6.4.1-6.4-3.3 0-1.8-.6-2.3-2.7-2.3-3.5-.1-4.4-1.1-2.8-3 1.4-1.7 6-2.1 6-.5zm196 1.9c0 .5-.7 1.2-1.6 1.5-1.4.5-1.5.4-.4-.9 1.4-1.7 2-1.9 2-.6zm370.4 5.4c-.6 1.6-9 6-10.5 5.5-.8-.3 4-3.2 10.8-6.7.1 0 0 .5-.3 1.2zm-569.6 7.8c-1.3.8-2.8-.7-2.8-3 0-1.1.5-1 2 .4s1.7 2 .8 2.6zm54.8 2c-.9 1.8-1.6 3.9-1.6 4.7 0 1-.7 1.2-2.4.8-2.8-.7-4.3 1.8-2.5 4.1 1.5 1.7 1.5 1.7-4.6 3-4.2 1-5.3.9-6.7-.4-1-.9-1.8-2.2-1.8-3 0-.8-1.2-1.3-3-1.3-4.1 0-3.8-1.6.8-3.6 11.9-5.2 22.7-9.2 23-8.4.2.6-.4 2.4-1.2 4.1zM596 197c0 .5-.2 1-.4 1-.3 0-.8-.5-1.1-1-.3-.6-.1-1 .4-1 .6 0 1.1.4 1.1 1zm101.4 2.1c-2 3.3-21.2 7.8-20.2 4.7.4-1.2 1.9-1.6 14.1-3.4 2.6-.3 5-1.1 5.3-1.5.3-.5.7-.9 1-.9.3 0 .2.5-.2 1.1zm-535.3 1.4c.1.5-5.1 3.3-11.5 6.1-6.4 2.9-15.8 7.3-20.9 9.8-5.1 2.5-9.6 4.6-10 4.6-1.3 0-4.7-4-4.7-5.5 0-.9 1.4-1.6 3.8-2 2-.4 5-.9 6.6-1.2 1.5-.3 7.8-3 14-6.1 6.1-3 12.7-5.9 14.6-6.3 4.5-.9 8-.7 8.1.6zm31 53.7c.8 1.5.8 1.8 0 1.4-.6-.4-1.6-1.6-2.2-2.8-.8-1.5-.8-1.8 0-1.4.6.4 1.6 1.6 2.2 2.8zm4.7 8.3c-.3.3-.9-.2-1.2-1.2-.6-1.4-.5-1.5.5-.6.7.7 1 1.5.7 1.8zm46.7 57.5c.3.5-.1 1-.9 1-.9 0-1.6-.5-1.6-1 0-.6.4-1 .9-1 .6 0 1.3.4 1.6 1zm232.5 1.4c0 .2-.9.6-2 .9-1.1.3-2 .1-2-.4s.9-.9 2-.9 2 .2 2 .4zm38.5 8.6c.4.6-1 1-3.4 1-2.3 0-4.1-.5-4.1-1 0-.6 1.5-1 3.4-1s3.8.4 4.1 1zm-65.5 2c0 .5-.9 1-2.1 1-1.1 0-1.7-.5-1.4-1 .3-.6 1.3-1 2.1-1s1.4.4 1.4 1zm-215.2 6.2c-.3.7-1.1 1.3-1.8 1.3s-1.5-.6-1.7-1.3c-.3-.7.4-1.2 1.7-1.2 1.3 0 2 .5 1.8 1.2zm-2.4 26.7c.7 1.1-1.7 2.1-4.7 2.1-2.2-.1-2.2-.1-.3-1.5 2.2-1.7 4.2-1.9 5-.6zm-.4 10c0 1.3-2.7 2.1-4.5 1.5-.8-.4-1.2-1-.9-1.5.7-1.2 5.4-1.2 5.4 0zm-11.6 19c.8 1.2-5.6 9.1-7.4 9.1-.8 0-5.2 1.2-9.8 2.6-4.5 1.5-8.4 2.5-8.5 2.3-.1-.2-1.2-1.8-2.5-3.6-1.2-1.8-2.2-3.7-2.2-4.2 0-3.3 28.6-9.2 30.4-6.2zm15.7.3c-.1.5-.1 1.8-.1 3l-.1 2.3-1.9-2.4c-1.1-1.2-1.7-2.7-1.4-3.3.7-1 3.5-.7 3.5.4zm-4.1 5c3 4.9 2.6 5.8-2.5 5.8-4.2 0-4.5-.2-4.5-2.6 0-3.3 1.7-6.4 3.5-6.4.9 0 2.4 1.5 3.5 3.2zm-15 8.7c0 .7-5.5 2.6-13.7 4.9-2.2.6-1.4-2.7.8-3.9 2.4-1.2 11-2.8 12.2-2.2.4.2.7.8.7 1.2zm233.1 14.8c-2.4 4.6-2.7 3.1-.5-2.3.9-2.2 1.9-3.4 2.1-2.7.2.6-.5 2.9-1.6 5zM77.5 450.8c2.2 2.1 7.8 5.6 12.5 7.7 15 6.7 59.8 29.6 64 32.6 7 5.1 4.5 6.6-4.3 2.5-2.9-1.3-20.9-10.1-40-19.5-19.2-9.4-36-17.4-37.3-17.7-2.5-.7-2.6-.7-2.6-5.4 0-4.1 0-4 1.9-4 1 0 3.5 1.7 5.8 3.8zm365.5 0c0 1-.7 2.7-1.5 3.8-1.3 1.7-1.3 1.5-.3-1.9 1.2-4.1 1.8-4.7 1.8-1.9zm-209.7 33.5c1 2.8 2.1 6 2.4 6.9.6 2.1-5.5 4-9.9 3.1-2.8-.6-2.9-.7-2.2-5.2.3-2.5 1-5 1.5-5.6.5-.5.9-1.7.9-2.7 0-1.3.8-1.8 2.8-1.8 2.4 0 2.9.7 4.5 5.3zm-59.1 12.2c.8 1.9.8 3.1 0 5-2.3 5.1-6.5 4.2-6.5-1.4 0-5.7 4.4-8.2 6.5-3.6zm60.5-.9c-.3.3-1.2.4-1.9.1-.8-.3-.5-.6.6-.6 1.1-.1 1.7.2 1.3.5zm-49.3 13.5c2.4 1.1 4.4 3.9 2.8 3.9-1.9 0-6.2-2.6-6.2-3.8 0-1.5.3-1.5 3.4-.1zm47.6 6.3c0 4.7-6.2 6.4-6.8 1.8-.2-1.6.3-2.5 2-3.1 3.7-1.5 4.8-1.2 4.8 1.3zm-8.3 1.8c-.3.8-.6.5-.6-.6-.1-1.1.2-1.7.5-1.3.3.3.4 1.2.1 1.9zm168.1 5.7c1.8.8 3.2 2 3.2 2.8 0 1.2-5.6 13.2-9.5 20.3-6.7 12.2-9.1 16-10.1 16-.7 0-1.4.6-1.7 1.2-.2.7-.8.9-1.3.5-.5-.5-.1-1.3.9-1.8.9-.6 1.7-1.5 1.7-2.2 0-.7.9-2.3 2-3.7 2.5-3.2 2.5-4 .1-4-3.4 0-4.2-6.4-1.6-12.6.8-1.9 1.4-5.6 1.3-8.2 0-2.6.2-5.4.5-6.2 1.4-4 1.5-5 .7-5.5-.7-.4-.6-1.3 0-2.6 1-1.8 1.3-1.7 5.9 1.4 2.6 1.8 6.2 3.9 7.9 4.6zm8.5 45.1c-.5 2-2.1 3.6-2.7 2.9-.2-.2 0-1.4.5-2.7 1-2.7 2.9-2.9 2.2-.2zm-5.2 8.5c.1 1.7-1.8 1.7-2.5 0-.4-1.1-.1-1.5 1-1.3.8.2 1.5.7 1.5 1.3zM234.5 579c-.3.5-2.7.9-5.3.9-4.6-.2-4.6-.2-1.2-.9 5.3-1.1 7.2-1.1 6.5 0zm-.8 5.6c-.3.3-1.2.4-1.9.1-.8-.3-.5-.6.6-.6 1.1-.1 1.7.2 1.3.5zm222.8 5.4c-.3.5-1.1 1-1.6 1-.6 0-.7-.5-.4-1 .3-.6 1.1-1 1.6-1 .6 0 .7.4.4 1zm-219.2.7c1.6 1.5-1.8 3.3-6.5 3.3-6.3 0-6.1-2.2.3-3.1 2.4-.3 4.7-.7 5-.7.3-.1.9.1 1.2.5zM235 602c0 .5-.7 1.3-1.6 1.8-1.4.8-1.6 2.7-1.5 12.1.1 6.8-.2 11.1-.8 11.1-.9 0-2.1-24.7-1.2-25.6.9-.8 5.1-.4 5.1.6zm130.6 7.3c-.4 2.4-1.3 5.3-2.1 6.3-1.2 1.7-1.3 1.4-1.3-3.1 0-3.2.5-5.6 1.5-6.8 2.2-2.4 2.7-1.5 1.9 3.6zm-134.2 42.5c.3.5 1.2 4 2 7.9 1.6 7.9 4.7 14.6 8.3 18.3 3.2 3.1 4.9 6.6 5.8 11.3.6 3.2.3 4-2.6 6.9l-3.2 3.3.2 17c.1 9.3.4 17.2.7 17.4.2.3 2-.3 3.9-1.2 3.7-1.7 4.4-1.2 2.3 1.6-3.2 4.1-24.9 6.7-31.8 3.7l-3.5-1.5 7-.5 7-.5v-33.9l-4.7-2.4c-6.6-3.4-7.7-6.5-4.9-14.1 1.1-3.2 2.1-6.8 2.1-7.9 0-1.2.9-4.5 1.9-7.4 1.1-2.9 2.1-7.5 2.4-10.1.5-4.8 2.9-8.7 5.3-8.7.7 0 1.5.4 1.8.8zm183.9 9.9c-1.2 3.1-3.8 5.3-5.1 4.4-1-.6-.5-1.5 1.8-3.5 3.7-3.1 4.2-3.2 3.3-.9zm-7.3 9.4c-.6 1.1-1.5 1.7-2.1 1.4-.5-.4-.5-1.4.1-2.6.6-1.1 1.5-1.7 2.1-1.4.5.4.5 1.4-.1 2.6zm43.2 20.6c-.5 1-1.4 2.8-2.1 4.1-1.2 2.3-.8 4.2 1 4.2.5 0 .9-.9.9-2 0-1 .9-2.4 2.1-3 1.1-.6 2.4-2.1 2.9-3.3 1.3-3.3 1.3.5 0 3.9-1.5 3.8.1 5.2 3.4 3 1.5-.9 2.6-2.3 2.6-3.1 0-2 1.6-1.9 2.4.1.4.9 1.3 1.4 2.1 1 .9-.3 1.5 0 1.5.8 0 2.3-2.2 7.6-3.1 7.6-1.3 0-1.1-3.4.3-4.8.9-.9.9-1.5-.1-2.5s-1.5-.8-2.7.7c-1.8 2.5-1.7 4.6.1 7 .8 1.1 1.5 2.9 1.5 4 0 3.2 1.6 5 3.5 4.2 1.4-.5 1.5-.9.5-2.1-1.1-1.3-1-1.8.6-3 1-.8 2.4-1.3 2.9-1.1 1.6.5.8 11.6-.9 13.5-1.2 1.3-1.3 2-.4 2.9 1.4 1.4 1.9 7.2.7 9.4-1.3 2.4-3.8 1.3-9.5-4.1-8.9-8.5-12.1-13-12.8-17.7-.3-2.4-1.3-5.8-2.1-7.5-.9-1.7-1.5-4.7-1.3-6.7.2-2.9.9-4 3.1-5 1.5-.7 2.7-1.8 2.7-2.4 0-.6.3-.9.6-.6.3.3.1 1.4-.4 2.5zm28.3 43.4c0 1.7-.6 2.5-2.2 2.7-2.3.3-3-.8-1.5-2.2.4-.4.8-1.2.8-1.7.3-1.9.4-2.1 1.7-1.7.6.3 1.2 1.6 1.2 2.9zm-7.5 4.3c-1.3 1.3-3.5-.7-2.5-2.4.5-.8 1.1-.8 2.1.1 1 .8 1.2 1.5.4 2.3z"/><path d="M325.5 80c-.3.5-.1 1 .4 1 .6 0 1.1-.5 1.1-1 0-.6-.2-1-.4-1-.3 0-.8.4-1.1 1zm35 8c-.8 1.4.3 3 2.1 3 1.6 0 1.6-.2.8-2.4-.7-1.8-2-2.1-2.9-.6zm-5.5 3c0 .5.5 1 1 1 .6 0 1-.5 1-1 0-.6-.4-1-1-1-.5 0-1 .4-1 1zm42.5 2c-.4.6-.3 1.6.3 2.2.6.6 1.2.6 1.7-.2.4-.6.3-1.6-.3-2.2-.6-.6-1.2-.6-1.7.2zm-96 2.5c-2.7 1.4-6.6 2.8-8.5 3.1-4.6.9-6 2.1-6 5.3 0 3.4 5.1 7.5 8.1 6.6 1.5-.5 2.2.1 3.4 2.9 1.5 3.5 4.6 4.9 6 2.6 1-1.5 1.7-1.2 5.9 2.2 3 2.5 4.9 3.2 9 3.4 2.8.2 6.6-.2 8.4-.8 3.5-1.3 4.4-3.8 1.3-3.8-1 0-3.1-.6-4.6-1.4-4.2-2.2-6-5.6-2.9-5.6.9 0 2.6-.9 3.8-1.9 1.1-1.1 3.8-3.4 5.9-5.1 4.8-4.1 4.7-5.4-.3-4.5-3.5.6-4 .4-4-1.3 0-1.6-.9-2.1-4.7-2.5-15-1.8-15.6-1.8-20.8.8zm16.2 5.1c-.3.3-1.2.4-1.9.1-.8-.3-.5-.6.6-.6 1.1-.1 1.7.2 1.3.5zm.3 6.4c-2 1.3-3.3 1.3-2.5 0 .3-.6 1.4-1 2.3-1 1.5 0 1.5.2.2 1zm33-8.5c0 1.8.5 2.5 2 2.5s2-.7 2-2.5-.5-2.5-2-2.5-2 .7-2 2.5zm45 1.6c0 1.1.5 1.7 1 1.4.6-.3 1-1.3 1-2.1s-.4-1.4-1-1.4c-.5 0-1 .9-1 2.1zm5-.6c-1.7 2-.4 3.5 3.1 3.5 3.4 0 3.5-.3 1.2-3-2.1-2.4-2.7-2.5-4.3-.5zm-52.3 3.9c-.6 1.5.1 2.6 1.5 2.6.4 0 .8-.9.8-2 0-2.3-1.5-2.7-2.3-.6zm57.8 2.6c-.3.5-.1 1 .4 1 .6 0 1.1-.5 1.1-1 0-.6-.2-1-.4-1-.3 0-.8.4-1.1 1zm-61.5 5.5c0 .9.5 1.5 1.1 1.3.6-.2 1.1-.8 1.1-1.3s-.5-1.1-1.1-1.3c-.6-.2-1.1.4-1.1 1.3zm-1 4.5c0 .5.7 1 1.5 1s1.5-.5 1.5-1c0-.6-.7-1-1.5-1s-1.5.4-1.5 1zm91 9.8c-4.7 4.8-9.6 10.3-11 12.2-1.4 1.8-4.9 5.6-7.8 8.3-5.2 5-7 8.7-7.7 16.2-.2 1.6-1.2 5.3-2.3 8.1-1.2 2.9-1.9 5.4-1.6 5.7.5.5 1.1 2.8 1.3 4.9.1.5.7.8 1.5.8 1 0 1.5 1.1 1.4 3.9 0 4.4 2.8 9.5 4.9 8.7.8-.3 1.6.1 1.9.9.7 1.6 3 2 3.8.7.8-1.3-.9-3.3-3-3.6-1.1-.2-2-1.2-2.2-2.5-.2-1.2-1.2-2.7-2.3-3.4-1.9-1.2-1.9-1.2.1-2.7 1.7-1.3 2.1-3.4 3-13 1.4-16.7 1.9-18.1 7.5-20.4 3.4-1.4 9.5-6.9 9.5-8.5 0-.5.7-1.1 1.5-1.5.8-.3 1.5-1 1.5-1.6 0-.9 3-4.1 14.5-16 1.4-1.4 2.5-3.1 2.5-3.7 0-.9-4.3-2.3-7.4-2.3-.6 0-4.9 3.9-9.6 8.8zm34.5 5.2c-.3.6.1 1.3 1 1.6 1.9.8 3 0 2-1.5-.8-1.4-2.2-1.4-3-.1zm-106 5c-.3.5.1 1 .9 1 .9 0 1.6-.5 1.6-1 0-.6-.4-1-.9-1-.6 0-1.3.4-1.6 1zM510 151c0 .5.4 1 .9 1 .6 0 1.3-.5 1.6-1 .3-.6-.1-1-.9-1-.9 0-1.6.4-1.6 1zm-5.3 4.7c-.4 2-.4 3.9-.2 4.2 1 .9 2.6-1.6 2.8-4.4.3-4.3-1.9-4.1-2.6.2zm-77 44c-.4.3-.7 1.5-.7 2.5s-.6 1.8-1.4 1.8c-.8 0-1.7 1.1-2 2.5-.6 2.5-2.6 3.5-2.6 1.3 0-.6-.9-.3-2 .7-2.6 2.4-2.5 3.4.5 4.5 2 .8 2.5 1.6 2.5 4.4 0 1.8.6 3.9 1.4 4.5.7.6 1.6 3 1.9 5.3.3 2.2 1 4.4 1.5 4.7.5.3 1.7 2.2 2.7 4.1 1 1.9 4.1 5.9 6.9 8.8 2.8 3 5.5 6 5.9 6.8.4.7 2.8 2.5 5.2 4 5.3 3 5.6 4.6 1.6 7-4.9 2.9-5.4 8-1.5 15.5 1.4 2.8 2.3 5.7 2 6.4-.6 1.7 1.1 3.1 4.9 4.1 2.5.6 2.8.5 1.9-.7-.6-.8-1.4-4-1.7-7.3-.3-3.2-1.3-6.6-2.1-7.5-2-2.2-2.1-4.1-.3-4.1.8 0 2.2-.9 3.2-2s2.4-2 3.1-2c1.6 0 8.4-6.3 8.4-7.8 0-1.9-7.3-7.2-10.8-7.8-1.8-.4-4.6-1.9-6.2-3.5-1.5-1.6-3.2-2.9-3.7-2.9-.8 0-3.3-3.9-6.4-10.1-1-2-2.5-3.9-3.2-4.2-.8-.3-1.7-2-2-3.9-.3-1.8-1.3-6-2.2-9.3-.9-3.3-1.9-8-2.1-10.5-.5-4.6-1.5-6.6-2.7-5.3zM564 202c0 .5.7 1 1.5 1s1.5-.5 1.5-1c0-.6-.7-1-1.5-1s-1.5.4-1.5 1zm-164.5 4c.3.5 1 1 1.6 1 .5 0 .9-.5.9-1 0-.6-.7-1-1.6-1-.8 0-1.2.4-.9 1zm13.5 4c0 2.4 1.5 2.7 2.4.4.9-2.2.8-2.4-.9-2.4-.8 0-1.5.9-1.5 2zm58.7 2.2c-2.2 1.2-2.2 6.1-.1 8.2 3.5 3.6 9.4.6 9.4-4.7 0-2.1-.6-2.8-2.7-3.3-1.6-.3-3.3-.7-3.9-.9-.5-.2-1.8.1-2.7.7zM552 221c-1.2.8-1.2 1 .2 1.5 1.9.7 3.8-.1 3.8-1.6 0-1.2-2.1-1.1-4 .1zm-87.3 1.6c-.8.8.1 2.4 1.4 2.4.5 0 .9-.7.9-1.5 0-1.5-1.2-2-2.3-.9zM574 228c-.8.5-1.1 1.2-.8 1.6 1 .9 3.8-.3 3.8-1.6 0-1.2-1-1.3-3 0zm-175.5 2.1c-1 1.5.3 2.5 1.6 1.2.7-.7.7-1.3.1-1.7-.6-.3-1.4-.1-1.7.5zm167.4 1.8c-6.5 2.5-17.9 3.5-19.3 1.6-1-1.2-1.4-1.2-3.1.1-1.7 1.2-1.8 1.6-.5 2.4.8.5 1.8.6 2.3.3.5-.3.8 0 .5.8-.3.8-1.3 1.6-2.4 1.8-2.5.4-4.4 2-4.4 3.7 0 1 .6 1.1 2.6.4 1.4-.6 3.8-1 5.4-1 1.6 0 3.2-.4 3.5-1 .4-.6 1.3-.5 2.4.2 2.7 1.7 15.2-1.8 15.8-4.3.3-1.1 1-2 1.7-2.1.6 0 1.6-.2 2.1-.3.6-.2 1.4-.3 1.9-.4 1-.1-2.3-4.1-3.3-4.1-.3.1-2.7.9-5.2 1.9zm-362.5 10.2c-.3.6 1.3 3.1 3.7 5.5 4.6 4.7 4.4 6.2-.3 1.7-2.2-2.1-3.1-2.4-4-1.5-.9.9-.5 1.9 2 4.5 1.8 1.8 3.2 4 3.2 4.9 0 .8.6 2.1 1.4 2.7 1.1 1 1.6.8 2.4-.6.9-1.6 1.2-1.5 2.3 1 .7 1.5 1.6 2.7 2.1 2.7.4 0 .8.7.8 1.5 0 1.8 4.6 2.1 5.2.4.4-1.2 19 18.2 24 25.1 2.1 2.7 3.7 4 5.4 4 1.3 0 2.4.4 2.4.9s.7 1.1 1.4 1.4c1 .4 1.3.1.9-.9-1-2.7 1.9-1.4 6 2.6 2.8 2.9 4.3 3.8 5.1 3 .7-.7-.3-2.4-3.6-5.7-4.4-4.3-4.7-4.5-7.8-3.5-3 1.1-3.2 1-4.5-2.1-.7-1.8-3.2-4.8-5.4-6.7-2.3-1.9-4.1-3.8-4.1-4.2 0-.4-6.4-7.1-14.1-15-7.8-7.9-15.7-16.2-17.7-18.6-3.4-4.2-5.5-5.2-6.8-3.1zm384.8 5.1c-1.3 1.3-1.6 3.8-.4 3.7.4 0 1.5-.3 2.4-.7 1.4-.6 1.4-1 .4-2.4-1-1.3-1.5-1.5-2.4-.6zm-16.7 2.8c.3.5.8 1 1.1 1 .2 0 .4-.5.4-1 0-.6-.5-1-1.1-1-.5 0-.7.4-.4 1zm8.3 13.7c-1.4 2.1-4.7 6.2-7.3 9.1-3 3.3-4.5 5.8-4.1 6.8.3.8-.1 2.6-1 3.9-2.2 3.3.1 4.3 3 1.3 1.3-1.2 3.5-3.1 5-4.1 3.9-2.7 10.9-12.6 10.2-14.4-.4-.9.1-2.4 1-3.5 1-1 1.4-2.1 1-2.5-.4-.4-1.1-.1-1.6.7-.7 1.1-1.2 1.1-2.3.2-1.2-1-1.9-.5-3.9 2.5zM562 263c0 .5.5 1 1 1 .6 0 1-.5 1-1 0-.6-.4-1-1-1-.5 0-1 .4-1 1zm-255 6c-1.8 1.8-2.7 4-1.6 4 1.2 0 7.6-4.3 7.6-5.1 0-1.7-4-.9-6 1.1zm214.3 32.5c-.3.9-.3 1.8-.1 2.1.9.9 3.8-.8 3.8-2.2 0-1.9-2.9-1.8-3.7.1zm-10.6 3.2c-1.1 1-.8 4.3.3 4.3.6 0 1-.4 1-.9s.3-1.6.6-2.5c.6-1.6-.7-2.2-1.9-.9zm78.3 2.7c0 .9.5 1.6 1 1.6.6 0 1-.4 1-.9 0-.6-.4-1.3-1-1.6-.5-.3-1 .1-1 .9zm-308.6 1.1c-.4.8-.3 2.3.1 3.2.6 1.6.8 1.6 2.6-.6 1-1.2 1.6-2.7 1.3-3.2-.8-1.4-3.4-1-4 .6zm8.6.5c0 .5.7 1 1.5 1s1.5-.5 1.5-1c0-.6-.7-1-1.5-1s-1.5.4-1.5 1zm30.5 1c-.7 1.2.2 3 1.6 3 .5 0 .9-.9.9-2 0-2.1-1.5-2.7-2.5-1zm-33.2 2.5c-.3.9-.3 1.8 0 2.1.9.9 2.7-.6 2.7-2.2 0-1.9-1.9-1.8-2.7.1zM189.5 206c-.7 1.1.2 3 1.4 3 .5 0 1.1-.9 1.4-2 .5-2.1-1.6-2.9-2.8-1zm190.2 330.7c-.4.3-.7 1.1-.7 1.7 0 .6.5.5 1.2-.2.6-.6.9-1.4.7-1.7-.3-.3-.9-.2-1.2.2zm-1.7 9.8c0 .8.5 1.5 1 1.5.6 0 1-.7 1-1.5s-.4-1.5-1-1.5c-.5 0-1 .7-1 1.5zm61.3-9.1c-2.8 2.8-4.3 5.3-4.3 7 0 2.3.4 2.1 5-2.7 4.4-4.5 6.5-8.7 4.3-8.7-.5 0-2.7 2-5 4.4zm-11 12.8c-3.3 4.7-4.8 9.4-3.4 10.2 1 .7 4.1-2 4.1-3.4 0-.5 1.4-2.5 3.1-4.5 2.6-2.9 2.9-3.8 1.9-5-1.8-2.2-2.4-1.9-5.7 2.7zm-9 10.3c-.3.9-.3 1.9.1 2.2.8.9 3.7-1.8 3-2.8-.8-1.4-2.4-1.1-3.1.6zm-7.8 9.2c-4.7 6-5.5 8.3-3.1 8.3 1.4 0 9.6-11.3 9.6-13.1 0-2.2-2.3-.5-6.5 4.8zm28.5 33.4c0 .5.5.7 1 .4.6-.3 1-.8 1-1.1 0-.2-.4-.4-1-.4-.5 0-1 .5-1 1.1zm-25.4.7c-.4.7-.2 1.2.3 1.2.6 0 1 .5.9 1.1-.2.6.3 1.4 1 1.6 1.6.6 1.5-.9-.1-3.2-1-1.2-1.6-1.4-2.1-.7zm1.8 28.7c-.9 2.2.1 2.9 1.5 1.1.8-1 .9-1.6.1-2.1-.5-.3-1.3.1-1.6 1zm-3.2 5.6c.2.6.8 1 1.3 1s1.1-.4 1.3-1c.2-.6-.4-1.1-1.3-1.1s-1.5.5-1.3 1.1zm-6.6 10.6c-1.1 1.1-.6 2.3.9 2.3.8 0 1.5-.4 1.5-.9 0-1.3-1.6-2.2-2.4-1.4zm-16 24.8c-.9 1.3-1.2 2.6-.7 2.9.5.3 1.6-.5 2.5-1.9.9-1.3 1.2-2.6.7-2.9-.5-.3-1.6.5-2.5 1.9zM360.5 692c.3.5.8 1 1.1 1 .2 0 .4-.5.4-1 0-.6-.5-1-1.1-1-.5 0-.7.4-.4 1zm-4.5 1.8c0 .5.7 1.6 1.6 2.3 1.4 1.2 1.6 1.1 1.3-.5-.4-2-2.9-3.5-2.9-1.8zm46 1.2c0 2.2.1 2.3 2.4 1.4 1.3-.5 1.4-.9.5-2-1.6-2-2.9-1.7-2.9.6zm-9 11.4c0 .9.5 1.6 1 1.6.6 0 1-.4 1-.9 0-.6-.4-1.3-1-1.6-.5-.3-1 .1-1 .9zm7.7 3.2c-.3.3-.4 1.1-.1 1.7.2.7-.5 1.8-1.7 2.5-1.9 1.2-2 1.1-1.4-.7.5-1.5.2-2.1-.9-2.1-.9 0-1.6.4-1.6.9s-.3 1.6-.6 2.5c-.4 1.1-.1 1.6 1 1.6.9 0 1.6.5 1.6 1 0 1.7 4.7-2.2 5.9-4.8.6-1.3 1.1-2.5 1.1-2.7 0-.7-2.6-.6-3.3.1zm1.8 16.5c-1 1.5.3 2.5 1.6 1.2.7-.7.7-1.3.1-1.7-.6-.3-1.4-.1-1.7.5zm-15 .8c-.6 1.1.9 2.3 1.9 1.4.9-.9.7-2.3-.3-2.3-.6 0-1.2.4-1.6.9zM378 740c0 .5.5 1 1 1 .6 0 1-.5 1-1 0-.6-.4-1-1-1-.5 0-1 .4-1 1zm-21.5.9c-.3.5-.1 1.2.5 1.6.5.3 1-.1 1-.9 0-1.8-.6-2.1-1.5-.7z"/></svg>